<svg version="1.1" id="Layer_1" xmlns="http://www.w3.org/2000/svg" xmlns:xlink="http://www.w3.org/1999/xlink" x="0px" y="0px"
	 width="100%" viewBox="0 0 1920 1080" enable-background="new 0 0 1920 1080" xml:space="preserve">
<path fill="none" opacity="1.000000" stroke="none" 
	d="
M1108.000000,1081.000000 
	C738.666748,1081.000000 369.833466,1081.000000 1.000149,1081.000000 
	C1.000099,721.000122 1.000099,361.000275 1.000049,1.000293 
	C640.999756,1.000196 1280.999512,1.000196 1920.999512,1.000098 
	C1920.999634,360.999664 1920.999634,720.999329 1920.999756,1080.999512 
	C1650.166626,1081.000000 1379.333374,1081.000000 1108.000000,1081.000000 
M1437.983521,531.982544 
	C1437.983521,531.982544 1437.903320,531.941406 1437.192993,531.887451 
	C1435.784302,533.217651 1434.375610,534.547852 1432.701904,536.328735 
	C1432.306885,536.660645 1431.911865,536.992554 1430.778931,537.152832 
	C1429.536865,538.487610 1428.294800,539.822388 1426.452026,541.487427 
	C1424.963501,543.423279 1423.474976,545.359131 1421.223145,547.121216 
	C1416.832031,544.903625 1412.197266,543.063354 1408.087036,540.410522 
	C1361.511230,510.349792 1315.028809,480.144409 1268.493652,450.020660 
	C1241.463257,432.522980 1214.366577,415.127991 1187.328491,397.642059 
	C1143.569458,369.342346 1099.815674,341.034180 1056.095093,312.674988 
	C1026.430664,293.433167 996.858154,274.049347 967.179626,254.829163 
	C955.877502,247.509781 944.360535,240.957535 930.384399,239.554520 
	C915.471619,238.057449 901.299988,240.144012 888.766724,247.991898 
	C857.538269,267.546082 826.736572,287.782227 795.782837,307.774628 
	C763.157349,328.846741 730.546448,349.941559 697.943542,371.048645 
	C662.984802,393.680939 628.050293,416.350616 593.088501,438.978210 
	C583.727234,445.036865 574.305115,451.001404 563.903381,457.653564 
	C563.903381,452.276733 563.945740,448.020874 563.896301,443.766052 
	C563.612244,419.308929 563.579041,394.844482 562.896179,370.398285 
	C562.539307,357.621429 551.722900,348.211273 538.130493,348.136902 
	C511.970428,347.993774 485.807709,347.939728 459.648712,348.160889 
	C446.407593,348.272797 434.656494,357.881073 434.787842,373.304016 
	C435.251953,427.787933 434.947327,482.278259 435.018982,536.766052 
	C435.023071,539.860657 434.327179,541.675598 431.408722,543.498169 
	C415.432739,553.475464 399.681213,563.813171 383.885559,574.077759 
	C367.551331,584.692261 351.254883,595.364807 334.279297,605.806824 
	C325.101624,591.786621 315.941925,577.754456 306.700378,563.776489 
	C306.161346,562.961182 304.969788,562.098267 304.065216,562.079895 
	C297.140930,561.939209 290.212524,562.002686 283.077606,562.002686 
	C283.077606,564.437927 283.081726,566.249084 283.077057,568.060242 
	C283.015472,592.042725 282.952606,616.025146 282.197723,640.079590 
	C251.206207,660.029175 220.209305,679.970459 189.228363,699.936462 
	C183.934631,703.348022 183.909760,703.656433 187.253448,708.708252 
	C199.148651,726.680237 215.308151,739.916626 234.094864,749.958618 
	C258.974976,763.257751 285.542999,767.702332 313.531647,764.031860 
	C331.392639,761.689575 348.304474,756.343201 363.511505,746.810974 
	C393.181152,728.213074 422.479248,709.022461 452.124908,690.472229 
	C452.272034,690.745972 452.493286,690.931274 452.903198,691.955627 
	C452.903198,711.872192 452.903198,731.788818 452.903198,751.687622 
	C461.150940,751.687622 468.872406,751.687622 476.851318,751.687622 
	C476.851318,749.401001 476.846191,747.427795 476.852112,745.454590 
	C476.924438,721.317932 476.998413,697.181274 477.765900,672.936646 
	C488.581604,666.028564 499.345062,659.036682 510.234222,652.246460 
	C516.038025,648.627380 522.059082,645.356628 527.974304,642.673645 
	C518.426025,659.343689 516.050354,677.437012 519.226501,695.955261 
	C521.704224,710.401550 527.535278,723.595703 538.052246,734.624390 
	C550.075134,747.232300 564.833130,754.242859 581.596863,755.620972 
	C597.995483,756.968994 614.216125,754.376343 629.018372,745.973694 
	C643.289001,737.872864 653.502075,726.356323 660.223328,710.991882 
	C652.151733,710.991882 644.657593,710.810059 637.184326,711.123840 
	C635.387329,711.199341 633.426392,712.650146 631.942200,713.932861 
	C626.995850,718.207520 622.772339,723.570435 617.301331,726.940857 
	C597.293152,739.267212 565.140015,737.030273 549.805298,713.343201 
	C545.445312,706.608521 542.496887,699.287781 541.985107,690.551880 
	C582.996643,690.551880 623.372681,690.551880 665.019531,690.551880 
	C663.233887,679.345520 662.649231,668.489441 659.653503,658.345337 
	C653.061523,636.023804 639.300415,619.833618 616.608704,611.800049 
	C604.864624,607.642212 592.919434,608.147339 581.025940,607.231323 
	C585.369507,604.247253 589.643860,601.156067 594.067444,598.295776 
	C630.724915,574.593079 667.419067,550.947266 704.084106,527.256287 
	C742.848816,502.208618 781.589478,477.123749 820.348633,452.067444 
	C852.970581,430.978638 885.627502,409.943817 918.194153,388.769958 
	C921.294189,386.754364 923.565796,386.717682 926.711548,388.768555 
	C951.764221,405.101349 976.931702,421.258270 1002.073303,437.454559 
	C1024.319458,451.785461 1046.613892,466.041809 1068.821899,480.431305 
	C1101.287354,501.467010 1133.678955,522.616943 1166.146851,543.648804 
	C1170.286865,546.330566 1174.697144,548.595398 1179.191406,551.959106 
	C1179.191406,617.877686 1179.191406,683.796204 1179.191406,749.629272 
	C1242.681519,749.629272 1305.543457,749.629272 1368.410889,749.629272 
	C1368.410889,732.316895 1368.410889,715.378967 1368.410889,697.929565 
	C1328.479614,697.929565 1288.766113,697.929565 1249.170532,697.929565 
	C1249.170532,686.682861 1249.170532,675.951782 1249.170532,665.002747 
	C1251.121704,665.002747 1252.767334,665.002686 1254.412964,665.002686 
	C1284.570679,665.002686 1314.728638,665.033386 1344.885864,664.914062 
	C1346.428833,664.907959 1347.966675,663.614319 1350.182495,663.009949 
	C1354.668091,665.766724 1359.210449,668.435913 1363.630005,671.294800 
	C1387.171143,686.523315 1410.672974,701.812561 1434.206909,717.052307 
	C1443.476562,723.054993 1452.793823,728.983887 1462.057861,734.981201 
	C1462.057861,734.981201 1462.021729,734.955933 1462.237671,735.475647 
	C1462.573120,735.622803 1462.908447,735.769958 1463.819336,736.245117 
	C1465.337646,737.127136 1466.855835,738.009155 1468.222656,739.687683 
	C1468.260620,739.955261 1468.298706,740.222839 1468.098877,740.839966 
	C1467.885742,741.043091 1467.632446,741.157593 1466.654053,741.048523 
	C1466.089600,741.648865 1465.525024,742.249207 1464.718628,743.307739 
	C1464.458984,743.533081 1464.199341,743.758423 1463.195312,744.114746 
	C1461.665771,746.620483 1460.769409,749.051636 1464.000000,751.000000 
	C1464.000000,751.000000 1464.003540,750.994507 1463.986084,751.602600 
	C1464.670044,751.675598 1465.353882,751.748596 1466.960205,751.669922 
	C1474.941895,751.748962 1482.923462,751.827942 1491.424805,752.253296 
	C1492.209351,752.472107 1492.993896,752.690918 1494.248535,753.470703 
	C1496.183716,755.285645 1500.692017,754.419189 1499.055542,759.016235 
	C1491.814575,759.077026 1484.573486,759.137817 1476.598022,759.109985 
	C1476.106445,759.571106 1475.614868,760.032227 1475.123413,760.493408 
	C1475.760132,760.990234 1476.396973,761.487122 1477.597900,762.329224 
	C1481.382935,765.273254 1485.168091,768.217285 1489.138916,771.874756 
	C1494.906494,775.178589 1503.044800,774.918213 1507.617065,771.042664 
	C1508.009644,770.988892 1508.402100,770.935120 1509.307739,770.900146 
	C1509.546509,770.673462 1509.785278,770.446777 1510.574463,769.766907 
	C1513.314697,767.106934 1516.054810,764.447021 1519.611816,761.985718 
	C1536.588013,766.232971 1553.940918,766.651245 1570.894775,763.622986 
	C1601.655884,758.128540 1627.979980,743.624084 1649.041382,720.257812 
	C1653.415771,715.404663 1657.084595,709.915710 1661.464600,704.217529 
	C1636.114990,687.800598 1611.503418,671.861694 1587.032837,655.150757 
	C1587.203735,653.889709 1587.374634,652.628662 1587.582031,650.867981 
	C1587.755493,650.587341 1587.929077,650.306763 1588.793579,649.913635 
	C1590.572876,643.950134 1592.352173,637.986694 1594.102051,631.263184 
	C1594.491699,629.528137 1594.881226,627.793152 1595.877808,625.953552 
	C1595.922974,624.969910 1595.968262,623.986206 1595.958618,622.261169 
	C1596.067993,621.527466 1596.177368,620.793823 1597.021606,619.804443 
	C1597.187012,613.106384 1597.365967,606.408508 1597.465088,599.709473 
	C1597.468750,599.458679 1596.695923,599.196411 1596.104248,598.217407 
	C1596.079712,597.476013 1596.055298,596.734680 1596.522461,595.634888 
	C1596.105469,594.736938 1595.688477,593.838989 1595.054443,592.204346 
	C1594.745483,590.460632 1594.436523,588.716858 1594.627319,586.483093 
	C1592.450317,580.647217 1590.273315,574.811279 1587.627441,568.428406 
	C1586.547974,566.181091 1585.468506,563.933777 1584.703491,560.979980 
	C1583.811401,559.984009 1582.919312,558.988037 1581.553223,557.606812 
	C1580.943726,556.558594 1580.334229,555.510437 1579.877075,553.713684 
	C1578.231201,551.819275 1576.585205,549.924805 1574.479980,547.794617 
	C1574.218994,547.361755 1573.958008,546.928955 1573.865601,545.748352 
	C1572.488770,544.547913 1571.112061,543.347412 1569.295654,542.020569 
	C1569.012573,541.843079 1568.866455,541.587402 1568.929321,540.514709 
	C1567.512329,539.402527 1566.095337,538.290405 1564.117920,536.919495 
	C1563.086060,535.930115 1562.054321,534.940735 1561.001953,533.224915 
	C1559.491577,532.257568 1557.981201,531.290161 1555.899902,530.118408 
	C1554.941406,529.382019 1553.982910,528.645691 1552.988892,527.211243 
	C1549.859375,525.551880 1546.729980,523.892456 1543.018311,521.807861 
	C1538.028076,519.803955 1533.037720,517.800049 1527.898071,515.101929 
	C1521.567871,512.355957 1515.132935,510.208862 1507.241211,511.724213 
	C1505.863770,511.576111 1504.486450,511.428009 1502.714844,510.683472 
	C1499.439087,510.876556 1496.163208,511.069641 1492.084717,511.484772 
	C1490.698730,511.547363 1489.312622,511.609955 1487.330688,511.163544 
	C1480.847046,511.174377 1474.412842,511.393707 1468.385986,515.908752 
	C1467.760620,516.045532 1467.135376,516.182373 1465.701294,516.092651 
	C1462.133545,517.726990 1458.565674,519.361328 1454.623779,521.444946 
	C1453.908569,521.727722 1453.193359,522.010498 1451.728516,522.136108 
	C1449.815186,523.410034 1447.901733,524.684021 1445.845215,526.263550 
	C1445.845215,526.263550 1445.511719,526.314819 1444.799683,526.144104 
	C1443.853760,527.047546 1442.907837,527.950989 1441.751343,529.173706 
	C1441.751343,529.173706 1441.370972,529.213623 1440.660278,529.076416 
	C1439.754272,530.018311 1438.848267,530.960266 1437.983521,531.982544 
M1501.088989,445.294159 
	C1499.378906,444.856995 1497.668823,444.419830 1495.377563,444.022888 
	C1495.238281,444.679230 1495.098999,445.335571 1494.997437,446.929565 
	C1494.983521,459.622620 1494.969604,472.315674 1494.497437,485.348358 
	C1495.001953,485.896484 1495.506470,486.444611 1496.482056,487.226776 
	C1496.616943,487.338898 1496.751709,487.450989 1497.151123,488.140747 
	C1501.526978,488.699890 1502.858276,487.384827 1502.917847,481.695618 
	C1503.029663,471.035461 1503.004395,460.372803 1502.887695,449.712738 
	C1502.873657,448.439270 1501.935547,447.175934 1501.088989,445.294159 
M1420.503906,513.632446 
	C1419.941528,513.124207 1419.379150,512.615906 1418.319946,511.699585 
	C1417.251709,510.389313 1416.183472,509.079010 1415.065674,507.085205 
	C1414.332520,506.415741 1413.599487,505.746246 1412.305908,504.712769 
	C1406.654541,498.211792 1401.106445,491.614990 1395.254272,485.300110 
	C1394.225830,484.190369 1391.922485,484.262177 1390.207886,483.788330 
	C1390.068726,485.417084 1389.163086,487.693481 1389.908203,488.575012 
	C1397.887817,498.017181 1406.004150,507.352905 1414.367065,516.457031 
	C1417.165283,519.503296 1418.908569,518.558411 1420.503906,513.632446 
M1454.042480,495.797119 
	C1454.718994,495.618866 1455.395508,495.440613 1456.615112,494.768127 
	C1457.013306,493.881683 1457.411499,492.995209 1458.224976,491.864655 
	C1457.885010,491.222870 1457.545044,490.581085 1456.913696,489.246155 
	C1455.789307,485.678467 1454.665039,482.110779 1453.774536,477.862610 
	C1453.256226,477.220917 1452.737793,476.579254 1451.898071,475.256104 
	C1450.433594,471.025360 1448.969116,466.794617 1447.754639,461.798462 
	C1446.869385,460.188141 1445.984253,458.577820 1444.833984,456.397125 
	C1444.237549,455.552032 1443.641235,454.706970 1442.936035,453.228424 
	C1441.936401,453.414795 1440.936646,453.601166 1439.421387,454.289062 
	C1439.280029,456.130951 1438.627197,458.116791 1439.097168,459.786621 
	C1440.305054,464.078247 1442.010742,468.229736 1443.251953,473.102356 
	C1443.741089,473.759399 1444.230347,474.416443 1445.027588,475.755096 
	C1446.544189,479.976593 1448.060669,484.198090 1449.281006,489.094330 
	C1449.799805,489.745850 1450.318604,490.397339 1451.137573,491.661285 
	C1452.067627,492.862854 1452.997681,494.064392 1454.042480,495.797119 
M1552.616821,472.725128 
	C1553.819824,469.504578 1555.022705,466.284058 1556.857300,462.906982 
	C1557.217041,461.266235 1557.576782,459.625488 1557.893799,457.280731 
	C1557.290527,456.078674 1556.687256,454.876617 1555.962524,453.149017 
	C1555.283203,453.340881 1554.603760,453.532745 1553.382080,454.176331 
	C1552.666870,455.256134 1551.731445,456.250061 1551.271729,457.429443 
	C1548.092407,465.587006 1545.012329,473.783142 1541.247437,482.090149 
	C1540.851074,483.731476 1540.454712,485.372803 1539.952759,487.801727 
	C1539.256348,490.451935 1536.976807,493.302521 1541.048096,495.882263 
	C1541.721924,495.668945 1542.395752,495.455597 1543.415283,495.012115 
	C1543.415283,495.012115 1543.811523,494.887939 1544.574341,494.856232 
	C1544.874146,494.042969 1545.173950,493.229675 1545.573486,491.685211 
	C1547.148682,487.483032 1548.723877,483.280853 1550.963623,478.872162 
	C1551.488892,477.064423 1552.014282,475.256714 1552.616821,472.725128 
M1073.500000,750.000000 
	C1098.926147,750.000000 1124.352295,750.000000 1149.840576,750.000000 
	C1149.840576,731.398865 1149.840576,713.316895 1149.840576,694.781982 
	C1112.920898,694.781982 1076.206543,694.781982 1039.068970,694.781982 
	C1039.068970,667.719360 1039.068970,641.108765 1039.068970,614.498108 
	C1039.068970,587.729065 1039.068970,560.960022 1039.068970,534.138672 
	C1015.731873,534.138672 992.856079,534.138672 969.962341,534.138672 
	C969.962341,606.164795 969.962341,677.884888 969.962341,750.000000 
	C1004.279114,750.000000 1038.389526,750.000000 1073.500000,750.000000 
M764.339966,755.799683 
	C785.608032,755.184082 803.626465,747.085938 818.522461,731.005981 
	C819.633057,738.786011 820.575378,745.386780 821.480530,751.727112 
	C828.225159,751.727112 834.169250,751.727112 840.052246,751.727112 
	C840.052246,684.703735 840.052246,617.958130 840.052246,551.178711 
	C832.424255,551.178711 825.043457,551.178711 817.347168,551.178711 
	C817.347168,577.479248 817.347168,603.428528 817.347168,630.331177 
	C813.888794,627.274292 811.218140,624.610291 808.247253,622.339050 
	C793.749390,611.255249 777.241150,606.894653 759.161438,607.996399 
	C739.088928,609.219543 722.036682,615.965759 708.548035,631.975281 
	C697.772156,644.765198 692.887573,659.486694 691.247681,675.261536 
	C689.622009,690.899597 693.572571,705.930542 700.786499,720.056763 
	C705.045959,728.397583 710.912842,735.202637 718.249329,740.888611 
	C731.542603,751.191284 746.680054,755.862061 764.339966,755.799683 
M909.974060,694.500000 
	C909.974060,670.575073 909.974060,646.650146 909.974060,622.697266 
	C903.639526,622.697266 897.907043,622.697266 892.248352,622.697266 
	C892.248352,665.940063 892.248352,708.852600 892.248352,751.710205 
	C898.273621,751.710205 904.010559,751.710205 909.974060,751.710205 
	C909.974060,732.779053 909.974060,714.139526 909.974060,694.500000 
M910.896301,590.384766 
	C914.244507,586.183472 917.592651,581.982178 921.875488,576.608032 
	C914.500671,576.608032 908.394287,576.608032 901.689026,576.608032 
	C905.440308,568.242065 908.746887,560.867859 912.278931,552.990723 
	C905.227234,552.990723 899.082214,553.017395 892.937622,552.976990 
	C890.667908,552.962036 889.601196,553.454346 889.163391,556.218079 
	C887.447083,567.051697 885.242920,577.807983 883.118164,589.135864 
	C888.575073,589.135864 893.738098,589.135864 899.203003,589.135864 
	C896.867432,596.708435 894.703552,603.724304 892.539673,610.740173 
	C892.812683,610.915466 893.085693,611.090759 893.358765,611.266052 
	C899.045288,604.482422 904.731873,597.698792 910.896301,590.384766 
M1598.557617,498.054779 
	C1600.842041,495.414978 1603.408325,492.959412 1605.301025,490.063568 
	C1606.368408,488.430359 1607.383179,485.151550 1606.574341,484.222839 
	C1604.600464,481.956573 1602.198242,483.215424 1600.354492,485.437134 
	C1593.055176,494.232788 1585.603394,502.904205 1578.448486,511.814606 
	C1577.411743,513.105896 1577.683105,515.447510 1577.349121,517.303101 
	C1579.305298,516.670044 1581.852417,516.608521 1583.114136,515.303772 
	C1588.310425,509.930511 1593.116455,504.179749 1598.557617,498.054779 
z"/>
<path fill="#FFED9F" opacity="1.000000" stroke="none" 
	d="
M527.982056,641.928711 
	C522.059082,645.356628 516.038025,648.627380 510.234222,652.246460 
	C499.345062,659.036682 488.581604,666.028564 477.321198,672.526733 
	C476.876495,635.525513 476.876495,598.934326 476.876495,561.828369 
	C470.299683,561.828369 464.180969,562.005127 458.080170,561.751648 
	C455.151215,561.630005 453.656921,562.833740 452.156555,565.132568 
	C436.530334,589.074585 420.800781,612.949158 405.100708,636.843018 
	C396.922516,649.289429 388.746124,661.737122 380.169830,674.791748 
	C364.850739,651.495483 349.896332,628.753723 334.941925,606.012024 
	C351.254883,595.364807 367.551331,584.692261 383.885559,574.077759 
	C399.681213,563.813171 415.432739,553.475464 431.408722,543.498169 
	C434.327179,541.675598 435.023071,539.860657 435.018982,536.766052 
	C434.947327,482.278259 435.251953,427.787933 434.787842,373.304016 
	C434.656494,357.881073 446.407593,348.272797 459.648712,348.160889 
	C485.807709,347.939728 511.970428,347.993774 538.130493,348.136902 
	C551.722900,348.211273 562.539307,357.621429 562.896179,370.398285 
	C563.579041,394.844482 563.612244,419.308929 563.896301,443.766052 
	C563.945740,448.020874 563.903381,452.276733 563.903381,457.653564 
	C574.305115,451.001404 583.727234,445.036865 593.088501,438.978210 
	C628.050293,416.350616 662.984802,393.680939 697.943542,371.048645 
	C730.546448,349.941559 763.157349,328.846741 795.782837,307.774628 
	C826.736572,287.782227 857.538269,267.546082 888.766724,247.991898 
	C901.299988,240.144012 915.471619,238.057449 930.384399,239.554520 
	C944.360535,240.957535 955.877502,247.509781 967.179626,254.829163 
	C996.858154,274.049347 1026.430664,293.433167 1056.095093,312.674988 
	C1099.815674,341.034180 1143.569458,369.342346 1187.328491,397.642059 
	C1214.366577,415.127991 1241.463257,432.522980 1268.493652,450.020660 
	C1315.028809,480.144409 1361.511230,510.349792 1408.087036,540.410522 
	C1412.197266,543.063354 1416.832031,544.903625 1421.591309,547.520691 
	C1395.374512,579.896118 1392.829712,625.751587 1415.616577,662.218750 
	C1447.044800,712.515198 1518.321411,722.851807 1562.851807,683.682129 
	C1571.968262,675.663208 1579.051147,666.127686 1585.602051,655.926392 
	C1586.203003,655.949036 1586.547485,655.935913 1586.891846,655.922791 
	C1611.503418,671.861694 1636.114990,687.800598 1661.464600,704.217529 
	C1657.084595,709.915710 1653.415771,715.404663 1649.041382,720.257812 
	C1627.979980,743.624084 1601.655884,758.128540 1570.894775,763.622986 
	C1553.940918,766.651245 1536.588013,766.232971 1519.212402,761.497253 
	C1517.576294,760.368774 1516.363770,759.237122 1515.098755,759.175171 
	C1510.071777,758.929138 1505.028198,759.017090 1499.990845,758.981323 
	C1500.692017,754.419189 1496.183716,755.285645 1494.507080,753.167603 
	C1498.243774,752.860718 1501.725586,752.957092 1505.199097,752.829956 
	C1510.411133,752.639221 1515.617432,752.291809 1521.297729,751.969238 
	C1525.242188,751.937256 1528.715210,751.947021 1532.574219,751.902527 
	C1533.245239,751.461182 1533.774658,751.076782 1533.778809,750.686646 
	C1533.863281,742.927124 1533.940552,735.166321 1533.838501,727.408142 
	C1533.828491,726.653198 1532.633789,725.913818 1531.491699,725.166870 
	C1528.993286,725.120300 1526.992432,725.074158 1525.392334,724.643555 
	C1526.168091,723.247314 1526.543213,722.235413 1527.126221,720.983643 
	C1527.886597,720.439514 1528.438843,720.135315 1529.326782,719.877686 
	C1530.392334,719.290222 1531.122314,718.656250 1531.875732,717.945618 
	C1531.899170,717.868958 1532.059448,717.864197 1532.429688,717.830200 
	C1534.621338,713.588135 1534.436035,711.275879 1531.760986,709.751953 
	C1529.866699,710.177063 1528.365112,710.583313 1526.666016,710.747864 
	C1524.661987,711.202576 1522.855469,711.898987 1520.706055,712.749512 
	C1519.865845,712.941040 1519.368530,712.978455 1518.740723,712.801758 
	C1518.103149,712.819214 1517.596191,713.050842 1516.748291,713.394531 
	C1515.223145,713.632996 1514.039185,713.759338 1512.681396,713.652466 
	C1511.338501,713.722107 1510.169067,714.025024 1508.589600,714.474609 
	C1506.733521,714.695984 1505.287720,714.770569 1503.561523,714.574646 
	C1499.574951,714.483582 1495.868408,714.662964 1491.728027,714.903137 
	C1489.861206,714.755920 1488.428345,714.548035 1486.879639,714.079956 
	C1485.562256,713.842773 1484.360352,713.865784 1482.720947,713.915161 
	C1480.849854,713.705078 1479.416626,713.468628 1477.829956,712.960938 
	C1474.517456,711.714233 1471.385254,710.638306 1468.192993,709.786804 
	C1463.389893,708.505615 1462.292358,709.352844 1462.205444,714.485657 
	C1462.089966,721.304565 1462.121338,728.126038 1462.089600,734.946411 
	C1452.793823,728.983887 1443.476562,723.054993 1434.206909,717.052307 
	C1410.672974,701.812561 1387.171143,686.523315 1363.630005,671.294800 
	C1359.210449,668.435913 1354.668091,665.766724 1349.737305,662.578613 
	C1349.292114,646.742615 1349.292114,631.337830 1349.292114,615.480591 
	C1346.708374,615.480591 1344.591309,615.488403 1342.474121,615.479370 
	C1320.397705,615.385193 1298.321411,615.288330 1276.051392,614.885437 
	C1266.930908,608.734009 1258.003906,602.889404 1248.979492,596.583618 
	C1248.882080,592.675903 1248.882080,589.229370 1248.882080,585.437439 
	C1288.214355,585.437439 1326.977173,585.437439 1365.903564,585.437439 
	C1365.903564,568.062439 1365.903564,551.046692 1365.903564,534.237305 
	C1303.516846,534.237305 1241.497803,534.237305 1178.982178,534.237305 
	C1178.982178,540.111572 1178.982178,545.582458 1178.982178,551.053406 
	C1174.697144,548.595398 1170.286865,546.330566 1166.146851,543.648804 
	C1133.678955,522.616943 1101.287354,501.467010 1068.821899,480.431305 
	C1046.613892,466.041809 1024.319458,451.785461 1002.073303,437.454559 
	C976.931702,421.258270 951.764221,405.101349 926.711548,388.768555 
	C923.565796,386.717682 921.294189,386.754364 918.194153,388.769958 
	C885.627502,409.943817 852.970581,430.978638 820.348633,452.067444 
	C781.589478,477.123749 742.848816,502.208618 704.084106,527.256287 
	C667.419067,550.947266 630.724915,574.593079 594.067444,598.295776 
	C589.643860,601.156067 585.369507,604.247253 580.606812,607.730713 
	C567.237488,609.973877 555.139343,614.277466 545.266052,622.826721 
	C538.822449,628.406128 533.697632,635.508545 527.982056,641.928711 
z"/>
<path fill="#000000" opacity="1.000000" stroke="none" 
	d="
M1276.244995,615.192200 
	C1298.321411,615.288330 1320.397705,615.385193 1342.474121,615.479370 
	C1344.591309,615.488403 1346.708374,615.480591 1349.292114,615.480591 
	C1349.292114,631.337830 1349.292114,646.742615 1349.399536,662.533691 
	C1347.966675,663.614319 1346.428833,664.907959 1344.885864,664.914062 
	C1314.728638,665.033386 1284.570679,665.002686 1254.412964,665.002686 
	C1252.767334,665.002686 1251.121704,665.002747 1249.170532,665.002747 
	C1249.170532,675.951782 1249.170532,686.682861 1249.170532,697.929565 
	C1288.766113,697.929565 1328.479614,697.929565 1368.410889,697.929565 
	C1368.410889,715.378967 1368.410889,732.316895 1368.410889,749.629272 
	C1305.543457,749.629272 1242.681519,749.629272 1179.191406,749.629272 
	C1179.191406,683.796204 1179.191406,617.877686 1179.086792,551.506226 
	C1178.982178,545.582458 1178.982178,540.111572 1178.982178,534.237305 
	C1241.497803,534.237305 1303.516846,534.237305 1365.903564,534.237305 
	C1365.903564,551.046692 1365.903564,568.062439 1365.903564,585.437439 
	C1326.977173,585.437439 1288.214355,585.437439 1248.882080,585.437439 
	C1248.882080,589.229370 1248.882080,592.675903 1248.884277,597.039551 
	C1248.886353,603.726624 1248.886353,609.496521 1248.886353,615.192200 
	C1258.361206,615.192200 1267.303101,615.192200 1276.244995,615.192200 
z"/>
<path fill="#000000" opacity="1.000000" stroke="none" 
	d="
M1073.000000,750.000000 
	C1038.389526,750.000000 1004.279114,750.000000 969.962341,750.000000 
	C969.962341,677.884888 969.962341,606.164795 969.962341,534.138672 
	C992.856079,534.138672 1015.731873,534.138672 1039.068970,534.138672 
	C1039.068970,560.960022 1039.068970,587.729065 1039.068970,614.498108 
	C1039.068970,641.108765 1039.068970,667.719360 1039.068970,694.781982 
	C1076.206543,694.781982 1112.920898,694.781982 1149.840576,694.781982 
	C1149.840576,713.316895 1149.840576,731.398865 1149.840576,750.000000 
	C1124.352295,750.000000 1098.926147,750.000000 1073.000000,750.000000 
z"/>
<path fill="#FEEC9F" opacity="1.000000" stroke="none" 
	d="
M451.931213,690.077332 
	C422.479248,709.022461 393.181152,728.213074 363.511505,746.810974 
	C348.304474,756.343201 331.392639,761.689575 313.531647,764.031860 
	C285.542999,767.702332 258.974976,763.257751 234.094864,749.958618 
	C215.308151,739.916626 199.148651,726.680237 187.253448,708.708252 
	C183.909760,703.656433 183.934631,703.348022 189.228363,699.936462 
	C220.209305,679.970459 251.206207,660.029175 282.630615,640.503540 
	C283.063507,677.853333 283.063507,714.779236 283.063507,751.685547 
	C291.385864,751.685547 299.115845,751.685547 307.027740,751.685547 
	C307.027740,747.218933 307.022552,743.068787 307.028534,738.918579 
	C307.083862,700.598511 307.141083,662.278503 307.490295,623.811707 
	C310.197357,622.107483 312.611877,620.549988 315.317841,619.164185 
	C331.060608,642.607788 347.014343,665.568604 361.714813,689.305603 
	C367.556488,698.738220 373.814117,703.513672 385.039825,701.717896 
	C388.506592,701.163269 390.611786,700.307068 392.546112,697.381226 
	C411.347687,668.942017 430.295349,640.599243 449.214478,612.237732 
	C450.146545,610.840393 451.199219,609.523621 452.808716,607.336243 
	C452.808716,635.690674 452.808716,662.799316 452.587646,689.941528 
	C452.366577,689.975037 451.931213,690.077332 451.931213,690.077332 
z"/>
<path fill="#000000" opacity="1.000000" stroke="none" 
	d="
M307.197754,623.958435 
	C307.141083,662.278503 307.083862,700.598511 307.028534,738.918579 
	C307.022552,743.068787 307.027740,747.218933 307.027740,751.685547 
	C299.115845,751.685547 291.385864,751.685547 283.063507,751.685547 
	C283.063507,714.779236 283.063507,677.853333 282.976807,640.467529 
	C282.952606,616.025146 283.015472,592.042725 283.077057,568.060242 
	C283.081726,566.249084 283.077606,564.437927 283.077606,562.002686 
	C290.212524,562.002686 297.140930,561.939209 304.065216,562.079895 
	C304.969788,562.098267 306.161346,562.961182 306.700378,563.776489 
	C315.941925,577.754456 325.101624,591.786621 334.610596,605.909424 
	C349.896332,628.753723 364.850739,651.495483 380.169830,674.791748 
	C388.746124,661.737122 396.922516,649.289429 405.100708,636.843018 
	C420.800781,612.949158 436.530334,589.074585 452.156555,565.132568 
	C453.656921,562.833740 455.151215,561.630005 458.080170,561.751648 
	C464.180969,562.005127 470.299683,561.828369 476.876495,561.828369 
	C476.876495,598.934326 476.876495,635.525513 476.974243,672.580688 
	C476.998413,697.181274 476.924438,721.317932 476.852112,745.454590 
	C476.846191,747.427795 476.851318,749.401001 476.851318,751.687622 
	C468.872406,751.687622 461.150940,751.687622 452.903198,751.687622 
	C452.903198,731.788818 452.903198,711.872192 452.938019,691.213379 
	C452.918121,690.283386 452.863434,690.095642 452.808716,689.907959 
	C452.808716,662.799316 452.808716,635.690674 452.808716,607.336243 
	C451.199219,609.523621 450.146545,610.840393 449.214478,612.237732 
	C430.295349,640.599243 411.347687,668.942017 392.546112,697.381226 
	C390.611786,700.307068 388.506592,701.163269 385.039825,701.717896 
	C373.814117,703.513672 367.556488,698.738220 361.714813,689.305603 
	C347.014343,665.568604 331.060608,642.607788 315.255676,618.823853 
	C312.515137,614.754822 310.128265,611.197754 307.197754,606.830627 
	C307.197754,613.372375 307.197754,618.665405 307.197754,623.958435 
z"/>
<path fill="#000000" opacity="1.000000" stroke="none" 
	d="
M1585.345459,655.890564 
	C1579.051147,666.127686 1571.968262,675.663208 1562.851807,683.682129 
	C1518.321411,722.851807 1447.044800,712.515198 1415.616577,662.218750 
	C1392.829712,625.751587 1395.374512,579.896118 1421.973022,547.607544 
	C1423.474976,545.359131 1424.963501,543.423279 1427.096069,541.377136 
	C1428.999023,539.952759 1430.258057,538.638672 1431.517090,537.324524 
	C1431.911865,536.992554 1432.306885,536.660645 1433.157593,536.061646 
	C1435.043335,534.510193 1436.473267,533.225769 1437.903320,531.941406 
	C1437.903320,531.941406 1437.983521,531.982544 1438.282715,531.889648 
	C1439.511597,530.935730 1440.441284,530.074707 1441.370972,529.213623 
	C1441.370972,529.213623 1441.751343,529.173706 1442.182739,529.005554 
	C1443.579956,527.996521 1444.545776,527.155640 1445.511719,526.314819 
	C1445.511719,526.314819 1445.845215,526.263550 1446.268555,526.115356 
	C1448.620605,524.742493 1450.549316,523.517883 1452.478149,522.293335 
	C1453.193359,522.010498 1453.908569,521.727722 1455.189209,521.220276 
	C1459.339722,519.436768 1462.924805,517.877991 1466.510010,516.319153 
	C1467.135376,516.182373 1467.760620,516.045532 1469.038940,515.720703 
	C1475.770142,514.245911 1481.848389,512.959229 1487.926636,511.672546 
	C1489.312622,511.609955 1490.698730,511.547363 1492.924316,511.542725 
	C1496.878906,511.493774 1499.993896,511.386810 1503.109009,511.279846 
	C1504.486450,511.428009 1505.863770,511.576111 1507.950439,511.938171 
	C1515.122192,513.366821 1521.584839,514.581421 1528.047485,515.796082 
	C1533.037720,517.800049 1538.028076,519.803955 1543.478760,522.317749 
	C1546.967651,524.521545 1549.995972,526.215393 1553.024414,527.909302 
	C1553.982910,528.645691 1554.941406,529.382019 1556.293457,530.540283 
	C1558.132080,531.958618 1559.577393,532.954956 1561.022583,533.951294 
	C1562.054321,534.940735 1563.086060,535.930115 1564.479980,537.372314 
	C1566.180420,538.967834 1567.518921,540.110657 1568.857300,541.253418 
	C1568.866455,541.587402 1569.012573,541.843079 1569.598877,542.408203 
	C1571.167114,544.029297 1572.432007,545.262756 1573.696899,546.496155 
	C1573.958008,546.928955 1574.218994,547.361755 1574.759521,548.252686 
	C1576.600952,550.627930 1578.162842,552.545105 1579.724731,554.462280 
	C1580.334229,555.510437 1580.943726,556.558594 1581.790039,558.123779 
	C1582.814209,559.656006 1583.601562,560.671265 1584.388916,561.686401 
	C1585.468506,563.933777 1586.547974,566.181091 1587.828857,569.077393 
	C1590.062744,575.475342 1592.095215,581.224243 1594.127563,586.973145 
	C1594.436523,588.716858 1594.745483,590.460632 1595.081787,592.893799 
	C1595.416382,594.386536 1595.723633,595.189941 1596.030762,595.993286 
	C1596.055298,596.734680 1596.079712,597.476013 1596.085938,599.039856 
	C1596.140747,606.594910 1596.213745,613.327515 1596.286743,620.060120 
	C1596.177368,620.793823 1596.067993,621.527466 1595.762451,622.875549 
	C1595.467896,624.346008 1595.369385,625.202026 1595.270874,626.058105 
	C1594.881226,627.793152 1594.491699,629.528137 1593.914795,631.946167 
	C1591.852539,638.428101 1589.977661,644.227173 1588.102661,650.026184 
	C1587.929077,650.306763 1587.755493,650.587341 1587.284912,651.294006 
	C1586.440308,653.110229 1585.892822,654.500366 1585.345459,655.890564 
M1444.383179,564.263733 
	C1428.562866,583.092957 1424.476318,604.851746 1430.506470,628.059265 
	C1440.675537,667.196167 1482.939209,689.200134 1521.094727,675.723450 
	C1539.435791,669.245361 1553.271362,657.334900 1561.845337,638.773254 
	C1574.419922,610.646545 1568.965454,579.072205 1544.634644,556.649414 
	C1527.599609,540.950012 1506.601196,535.923889 1483.773438,540.542358 
	C1468.155396,543.702209 1454.980591,551.323181 1444.383179,564.263733 
z"/>
<path fill="#000000" opacity="1.000000" stroke="none" 
	d="
M763.863098,755.808777 
	C746.680054,755.862061 731.542603,751.191284 718.249329,740.888611 
	C710.912842,735.202637 705.045959,728.397583 700.786499,720.056763 
	C693.572571,705.930542 689.622009,690.899597 691.247681,675.261536 
	C692.887573,659.486694 697.772156,644.765198 708.548035,631.975281 
	C722.036682,615.965759 739.088928,609.219543 759.161438,607.996399 
	C777.241150,606.894653 793.749390,611.255249 808.247253,622.339050 
	C811.218140,624.610291 813.888794,627.274292 817.347168,630.331177 
	C817.347168,603.428528 817.347168,577.479248 817.347168,551.178711 
	C825.043457,551.178711 832.424255,551.178711 840.052246,551.178711 
	C840.052246,617.958130 840.052246,684.703735 840.052246,751.727112 
	C834.169250,751.727112 828.225159,751.727112 821.480530,751.727112 
	C820.575378,745.386780 819.633057,738.786011 818.522461,731.005981 
	C803.626465,747.085938 785.608032,755.184082 763.863098,755.808777 
M781.895325,731.702454 
	C820.685059,720.373169 824.751770,678.225403 811.586548,654.349487 
	C800.304871,633.889587 775.322144,624.595581 750.591675,631.422791 
	C728.317688,637.571899 713.692688,658.158264 714.513367,682.207214 
	C715.373230,707.404480 727.599976,724.443787 750.031494,731.349915 
	C760.279602,734.505127 770.689880,734.193787 781.895325,731.702454 
z"/>
<path fill="#000000" opacity="1.000000" stroke="none" 
	d="
M527.978149,642.301147 
	C533.697632,635.508545 538.822449,628.406128 545.266052,622.826721 
	C555.139343,614.277466 567.237488,609.973877 580.549316,608.071655 
	C592.919434,608.147339 604.864624,607.642212 616.608704,611.800049 
	C639.300415,619.833618 653.061523,636.023804 659.653503,658.345337 
	C662.649231,668.489441 663.233887,679.345520 665.019531,690.551880 
	C623.372681,690.551880 582.996643,690.551880 541.985107,690.551880 
	C542.496887,699.287781 545.445312,706.608521 549.805298,713.343201 
	C565.140015,737.030273 597.293152,739.267212 617.301331,726.940857 
	C622.772339,723.570435 626.995850,718.207520 631.942200,713.932861 
	C633.426392,712.650146 635.387329,711.199341 637.184326,711.123840 
	C644.657593,710.810059 652.151733,710.991882 660.223328,710.991882 
	C653.502075,726.356323 643.289001,737.872864 629.018372,745.973694 
	C614.216125,754.376343 597.995483,756.968994 581.596863,755.620972 
	C564.833130,754.242859 550.075134,747.232300 538.052246,734.624390 
	C527.535278,723.595703 521.704224,710.401550 519.226501,695.955261 
	C516.050354,677.437012 518.426025,659.343689 527.978149,642.301147 
M628.203491,644.316406 
	C612.100891,627.889282 592.699280,625.420837 572.041382,632.586304 
	C554.731384,638.590454 545.512207,652.128235 542.094177,670.082397 
	C575.193726,670.082397 607.872681,670.082397 640.775024,670.082397 
	C638.753479,660.372864 634.995361,651.997742 628.203491,644.316406 
z"/>
<path fill="#000000" opacity="1.000000" stroke="none" 
	d="
M1512.855103,713.885742 
	C1514.039185,713.759338 1515.223145,713.632996 1516.893555,713.549683 
	C1517.877075,713.400513 1518.374146,713.208191 1518.871216,713.015869 
	C1519.368530,712.978455 1519.865845,712.941040 1521.041870,712.835815 
	C1523.434937,712.175171 1525.149292,711.582458 1526.863647,710.989624 
	C1528.365112,710.583313 1529.866699,710.177063 1531.896729,710.193726 
	C1532.303223,713.032471 1532.181396,715.448364 1532.059570,717.864197 
	C1532.059448,717.864197 1531.899170,717.868958 1531.579956,717.952148 
	C1530.504272,718.633911 1529.747803,719.232544 1528.991211,719.831177 
	C1528.438843,720.135315 1527.886597,720.439514 1526.787842,720.990601 
	C1524.672729,722.214294 1523.103882,723.191040 1521.535034,724.167786 
	C1521.646851,724.454529 1521.758545,724.741272 1521.870361,725.028015 
	C1522.910767,725.028015 1523.951172,725.028015 1524.991577,725.028015 
	C1526.992432,725.074158 1528.993286,725.120300 1531.625610,725.605225 
	C1532.234131,734.681580 1532.211182,743.319153 1532.188232,751.956787 
	C1528.715210,751.947021 1525.242188,751.937256 1520.954346,751.798340 
	C1510.394531,751.748474 1500.649902,751.827698 1490.905151,751.906982 
	C1482.923462,751.827942 1474.941895,751.748962 1466.318848,751.521057 
	C1465.119507,751.246338 1464.561523,751.120422 1464.003540,750.994507 
	C1464.003540,750.994507 1464.000000,751.000000 1463.984375,750.559509 
	C1463.958984,748.073914 1463.949341,746.028809 1463.939697,743.983765 
	C1464.199341,743.758423 1464.458984,743.533081 1465.154297,743.084961 
	C1466.172974,742.302551 1466.755981,741.742981 1467.338989,741.183411 
	C1467.632446,741.157593 1467.885742,741.043091 1468.562744,740.632690 
	C1469.531982,739.970764 1470.037231,739.516113 1470.884766,739.085327 
	C1472.522339,738.284790 1473.817383,737.460388 1475.112427,736.635925 
	C1472.401978,735.267517 1469.904785,735.376953 1467.617432,734.736816 
	C1466.217407,734.345032 1464.131348,732.849487 1464.081055,731.769287 
	C1463.759644,724.856323 1463.917114,717.921082 1463.917114,710.567749 
	C1469.016602,711.533691 1473.500000,712.382874 1477.983276,713.232117 
	C1479.416626,713.468628 1480.849854,713.705078 1482.979370,714.127808 
	C1484.782104,714.322754 1485.888794,714.331421 1486.995361,714.340088 
	C1488.428345,714.548035 1489.861206,714.755920 1492.034424,715.132324 
	C1496.463745,715.148865 1500.152832,714.997009 1503.841797,714.845154 
	C1505.287720,714.770569 1506.733521,714.695984 1508.901245,714.617065 
	C1510.700439,714.370483 1511.777710,714.128113 1512.855103,713.885742 
z"/>
<path fill="#000000" opacity="1.000000" stroke="none" 
	d="
M909.974060,695.000000 
	C909.974060,714.139526 909.974060,732.779053 909.974060,751.710205 
	C904.010559,751.710205 898.273621,751.710205 892.248352,751.710205 
	C892.248352,708.852600 892.248352,665.940063 892.248352,622.697266 
	C897.907043,622.697266 903.639526,622.697266 909.974060,622.697266 
	C909.974060,646.650146 909.974060,670.575073 909.974060,695.000000 
z"/>
<path fill="#FFC91D" opacity="1.000000" stroke="none" 
	d="
M910.657349,590.649963 
	C904.731873,597.698792 899.045288,604.482422 893.358765,611.266052 
	C893.085693,611.090759 892.812683,610.915466 892.539673,610.740173 
	C894.703552,603.724304 896.867432,596.708435 899.203003,589.135864 
	C893.738098,589.135864 888.575073,589.135864 883.118164,589.135864 
	C885.242920,577.807983 887.447083,567.051697 889.163391,556.218079 
	C889.601196,553.454346 890.667908,552.962036 892.937622,552.976990 
	C899.082214,553.017395 905.227234,552.990723 912.278931,552.990723 
	C908.746887,560.867859 905.440308,568.242065 901.689026,576.608032 
	C908.394287,576.608032 914.500671,576.608032 921.875488,576.608032 
	C917.592651,581.982178 914.244507,586.183472 910.657349,590.649963 
z"/>
<path fill="#FFC91D" opacity="1.000000" stroke="none" 
	d="
M1499.523193,758.998779 
	C1505.028198,759.017090 1510.071777,758.929138 1515.098755,759.175171 
	C1516.363770,759.237122 1517.576294,760.368774 1518.803955,761.397949 
	C1516.054810,764.447021 1513.314697,767.106934 1510.061768,770.031738 
	C1509.238159,770.414917 1508.986816,770.609863 1508.794678,770.881348 
	C1508.402100,770.935120 1508.009644,770.988892 1506.927979,771.146790 
	C1500.476929,771.221069 1494.714966,771.191223 1488.953125,771.161316 
	C1485.168091,768.217285 1481.382935,765.273254 1477.355713,761.806946 
	C1477.186523,760.589294 1477.259521,759.893921 1477.332520,759.198547 
	C1484.573486,759.137817 1491.814575,759.077026 1499.523193,758.998779 
z"/>
<path fill="#F7D12C" opacity="1.000000" stroke="none" 
	d="
M1598.311768,498.311218 
	C1593.116455,504.179749 1588.310425,509.930511 1583.114136,515.303772 
	C1581.852417,516.608521 1579.305298,516.670044 1577.349121,517.303101 
	C1577.683105,515.447510 1577.411743,513.105896 1578.448486,511.814606 
	C1585.603394,502.904205 1593.055176,494.232788 1600.354492,485.437134 
	C1602.198242,483.215424 1604.600464,481.956573 1606.574341,484.222839 
	C1607.383179,485.151550 1606.368408,488.430359 1605.301025,490.063568 
	C1603.408325,492.959412 1600.842041,495.414978 1598.311768,498.311218 
z"/>
<path fill="#F7D12C" opacity="1.000000" stroke="none" 
	d="
M1556.225586,463.063538 
	C1555.022705,466.284058 1553.819824,469.504578 1552.298218,473.284485 
	C1551.419434,475.588776 1550.859253,477.333710 1550.299072,479.078674 
	C1548.723877,483.280853 1547.148682,487.483032 1545.269531,492.219971 
	C1544.580933,493.465759 1544.196167,494.176819 1543.811523,494.887939 
	C1543.811523,494.887939 1543.415283,495.012115 1542.880127,495.070648 
	C1541.866821,495.208374 1541.388550,495.287567 1540.910278,495.366699 
	C1536.976807,493.302521 1539.256348,490.451935 1540.266602,487.189270 
	C1541.020508,485.040192 1541.460449,483.503571 1541.900391,481.966919 
	C1545.012329,473.783142 1548.092407,465.587006 1551.271729,457.429443 
	C1551.731445,456.250061 1552.666870,455.256134 1554.011719,454.034729 
	C1555.122192,453.820251 1555.603149,453.747375 1556.083984,453.674561 
	C1556.687256,454.876617 1557.290527,456.078674 1557.661499,457.858948 
	C1557.027954,459.979248 1556.626831,461.521393 1556.225586,463.063538 
z"/>
<path fill="#F7D12C" opacity="1.000000" stroke="none" 
	d="
M1443.044800,453.861877 
	C1443.641235,454.706970 1444.237549,455.552032 1444.944336,457.038666 
	C1445.871338,459.308105 1446.687988,460.935974 1447.504761,462.563873 
	C1448.969116,466.794617 1450.433594,471.025360 1452.024414,475.910767 
	C1452.614136,477.224640 1453.077393,477.883850 1453.540649,478.543091 
	C1454.665039,482.110779 1455.789307,485.678467 1457.039795,489.981415 
	C1457.380615,491.180725 1457.595215,491.644745 1457.809814,492.108765 
	C1457.411499,492.995209 1457.013306,493.881683 1455.989258,494.930481 
	C1454.884888,495.150574 1454.406250,495.208282 1453.927734,495.265930 
	C1452.997681,494.064392 1452.067627,492.862854 1451.018066,491.043152 
	C1450.458130,489.756561 1450.017578,489.088104 1449.577148,488.419617 
	C1448.060669,484.198090 1446.544189,479.976593 1444.927734,475.104919 
	C1444.390991,473.782227 1443.954224,473.109741 1443.517334,472.437256 
	C1442.010742,468.229736 1440.305054,464.078247 1439.097168,459.786621 
	C1438.627197,458.116791 1439.280029,456.130951 1440.064575,454.102570 
	C1441.486816,453.898010 1442.265747,453.879944 1443.044800,453.861877 
z"/>
<path fill="#F7D12C" opacity="1.000000" stroke="none" 
	d="
M1415.115234,507.768677 
	C1416.183472,509.079010 1417.251709,510.389313 1418.615723,512.197876 
	C1419.289062,513.127869 1419.666504,513.559631 1420.044067,513.991394 
	C1418.908569,518.558411 1417.165283,519.503296 1414.367065,516.457031 
	C1406.004150,507.352905 1397.887817,498.017181 1389.908203,488.575012 
	C1389.163086,487.693481 1390.068726,485.417084 1390.207886,483.788330 
	C1391.922485,484.262177 1394.225830,484.190369 1395.254272,485.300110 
	C1401.106445,491.614990 1406.654541,498.211792 1412.639160,505.205902 
	C1413.686890,506.388916 1414.401123,507.078796 1415.115234,507.768677 
z"/>
<path fill="#F7D12C" opacity="1.000000" stroke="none" 
	d="
M1495.958740,443.982666 
	C1497.668823,444.419830 1499.378906,444.856995 1501.135010,446.063660 
	C1501.152466,458.609558 1501.047607,470.386627 1501.145630,482.161987 
	C1501.172119,485.338379 1500.261353,487.299500 1496.886597,487.563049 
	C1496.751709,487.450989 1496.616943,487.338898 1496.228149,486.811035 
	C1495.634766,485.933105 1495.295166,485.470917 1494.955688,485.008728 
	C1494.969604,472.315674 1494.983521,459.622620 1495.227539,446.296844 
	C1495.624634,445.103638 1495.791748,444.543152 1495.958740,443.982666 
z"/>
<path fill="none" opacity="1.000000" stroke="none" 
	d="
M1477.829956,712.960938 
	C1473.500000,712.382874 1469.016602,711.533691 1463.917114,710.567749 
	C1463.917114,717.921082 1463.759644,724.856323 1464.081055,731.769287 
	C1464.131348,732.849487 1466.217407,734.345032 1467.617432,734.736816 
	C1469.904785,735.376953 1472.401978,735.267517 1475.112427,736.635925 
	C1473.817383,737.460388 1472.522339,738.284790 1470.519531,739.072937 
	C1469.332642,738.988159 1468.853394,738.939697 1468.374146,738.891235 
	C1466.855835,738.009155 1465.337646,737.127136 1463.384521,735.848572 
	C1462.640259,735.286682 1462.330933,735.121338 1462.021729,734.955933 
	C1462.021729,734.955933 1462.057861,734.981201 1462.073730,734.963806 
	C1462.121338,728.126038 1462.089966,721.304565 1462.205444,714.485657 
	C1462.292358,709.352844 1463.389893,708.505615 1468.192993,709.786804 
	C1471.385254,710.638306 1474.517456,711.714233 1477.829956,712.960938 
z"/>
<path fill="none" opacity="1.000000" stroke="none" 
	d="
M1497.018799,487.851898 
	C1500.261353,487.299500 1501.172119,485.338379 1501.145630,482.161987 
	C1501.047607,470.386627 1501.152466,458.609558 1501.303467,446.370514 
	C1501.935547,447.175934 1502.873657,448.439270 1502.887695,449.712738 
	C1503.004395,460.372803 1503.029663,471.035461 1502.917847,481.695618 
	C1502.858276,487.384827 1501.526978,488.699890 1497.018799,487.851898 
z"/>
<path fill="#B0B0B0" opacity="1.000000" stroke="none" 
	d="
M1491.165039,752.080139 
	C1500.649902,751.827698 1510.394531,751.748474 1520.482666,751.840149 
	C1515.617432,752.291809 1510.411133,752.639221 1505.199097,752.829956 
	C1501.725586,752.957092 1498.243774,752.860718 1494.272095,752.887085 
	C1492.993896,752.690918 1492.209351,752.472107 1491.165039,752.080139 
z"/>
<path fill="none" opacity="1.000000" stroke="none" 
	d="
M1596.654175,619.932251 
	C1596.213745,613.327515 1596.140747,606.594910 1596.176270,599.400879 
	C1596.695923,599.196411 1597.468750,599.458679 1597.465088,599.709473 
	C1597.365967,606.408508 1597.187012,613.106384 1596.654175,619.932251 
z"/>
<path fill="none" opacity="1.000000" stroke="none" 
	d="
M1527.972778,515.448975 
	C1521.584839,514.581421 1515.122192,513.366821 1508.366455,511.895020 
	C1515.132935,510.208862 1521.567871,512.355957 1527.972778,515.448975 
z"/>
<path fill="none" opacity="1.000000" stroke="none" 
	d="
M1487.628662,511.418060 
	C1481.848389,512.959229 1475.770142,514.245911 1469.298706,515.529907 
	C1474.412842,511.393707 1480.847046,511.174377 1487.628662,511.418060 
z"/>
<path fill="none" opacity="1.000000" stroke="none" 
	d="
M1489.046021,771.518066 
	C1494.714966,771.191223 1500.476929,771.221069 1506.657715,771.275879 
	C1503.044800,774.918213 1494.906494,775.178589 1489.046021,771.518066 
z"/>
<path fill="#D2D2D2" opacity="1.000000" stroke="none" 
	d="
M1588.448120,649.969910 
	C1589.977661,644.227173 1591.852539,638.428101 1593.929443,632.326172 
	C1592.352173,637.986694 1590.572876,643.950134 1588.448120,649.969910 
z"/>
<path fill="#D2D2D2" opacity="1.000000" stroke="none" 
	d="
M1594.377441,586.728149 
	C1592.095215,581.224243 1590.062744,575.475342 1588.063232,569.350952 
	C1590.273315,574.811279 1592.450317,580.647217 1594.377441,586.728149 
z"/>
<path fill="#D2D2D2" opacity="1.000000" stroke="none" 
	d="
M1466.105713,516.205933 
	C1462.924805,517.877991 1459.339722,519.436768 1455.376221,520.995605 
	C1458.565674,519.361328 1462.133545,517.726990 1466.105713,516.205933 
z"/>
<path fill="#D2D2D2" opacity="1.000000" stroke="none" 
	d="
M1502.911865,510.981659 
	C1499.993896,511.386810 1496.878906,511.493774 1493.325684,511.431702 
	C1496.163208,511.069641 1499.439087,510.876556 1502.911865,510.981659 
z"/>
<path fill="#D2D2D2" opacity="1.000000" stroke="none" 
	d="
M1553.006592,527.560303 
	C1549.995972,526.215393 1546.967651,524.521545 1543.769775,522.530334 
	C1546.729980,523.892456 1549.859375,525.551880 1553.006592,527.560303 
z"/>
<path fill="#D2D2D2" opacity="1.000000" stroke="none" 
	d="
M1579.800903,554.088013 
	C1578.162842,552.545105 1576.600952,550.627930 1574.989258,548.370605 
	C1576.585205,549.924805 1578.231201,551.819275 1579.800903,554.088013 
z"/>
<path fill="#D2D2D2" opacity="1.000000" stroke="none" 
	d="
M1463.567505,744.049194 
	C1463.949341,746.028809 1463.958984,748.073914 1463.987061,750.557739 
	C1460.769409,749.051636 1461.665771,746.620483 1463.567505,744.049194 
z"/>
<path fill="#D2D2D2" opacity="1.000000" stroke="none" 
	d="
M1452.103271,522.214722 
	C1450.549316,523.517883 1448.620605,524.742493 1446.340088,525.962585 
	C1447.901733,524.684021 1449.815186,523.410034 1452.103271,522.214722 
z"/>
<path fill="#D2D2D2" opacity="1.000000" stroke="none" 
	d="
M1437.548096,531.914429 
	C1436.473267,533.225769 1435.043335,534.510193 1433.290039,535.836304 
	C1434.375610,534.547852 1435.784302,533.217651 1437.548096,531.914429 
z"/>
<path fill="#D2D2D2" opacity="1.000000" stroke="none" 
	d="
M1568.893311,540.884033 
	C1567.518921,540.110657 1566.180420,538.967834 1564.760254,537.501709 
	C1566.095337,538.290405 1567.512329,539.402527 1568.893311,540.884033 
z"/>
<path fill="#D2D2D2" opacity="1.000000" stroke="none" 
	d="
M1431.147949,537.238708 
	C1430.258057,538.638672 1428.999023,539.952759 1427.396484,541.212036 
	C1428.294800,539.822388 1429.536865,538.487610 1431.147949,537.238708 
z"/>
<path fill="#D2D2D2" opacity="1.000000" stroke="none" 
	d="
M1573.781250,546.122253 
	C1572.432007,545.262756 1571.167114,544.029297 1569.818726,542.471436 
	C1571.112061,543.347412 1572.488770,544.547913 1573.781250,546.122253 
z"/>
<path fill="#D2D2D2" opacity="1.000000" stroke="none" 
	d="
M1561.012207,533.588135 
	C1559.577393,532.954956 1558.132080,531.958618 1556.578857,530.642517 
	C1557.981201,531.290161 1559.491577,532.257568 1561.012207,533.588135 
z"/>
<path fill="#FAF3CE" opacity="1.000000" stroke="none" 
	d="
M1447.629639,462.181152 
	C1446.687988,460.935974 1445.871338,459.308105 1445.076904,457.323853 
	C1445.984253,458.577820 1446.869385,460.188141 1447.629639,462.181152 
z"/>
<path fill="#FAF3CE" opacity="1.000000" stroke="none" 
	d="
M1556.541504,462.985229 
	C1556.626831,461.521393 1557.027954,459.979248 1557.682861,458.210938 
	C1557.576782,459.625488 1557.217041,461.266235 1556.541504,462.985229 
z"/>
<path fill="#FAF3CE" opacity="1.000000" stroke="none" 
	d="
M1550.631348,478.975403 
	C1550.859253,477.333710 1551.419434,475.588776 1552.259521,473.646423 
	C1552.014282,475.256714 1551.488892,477.064423 1550.631348,478.975403 
z"/>
<path fill="#FAF3CE" opacity="1.000000" stroke="none" 
	d="
M1541.573975,482.028534 
	C1541.460449,483.503571 1541.020508,485.040192 1540.319580,486.795471 
	C1540.454712,485.372803 1540.851074,483.731476 1541.573975,482.028534 
z"/>
<path fill="#D2D2D2" opacity="1.000000" stroke="none" 
	d="
M1585.602051,655.926392 
	C1585.892822,654.500366 1586.440308,653.110229 1587.266602,651.543823 
	C1587.374634,652.628662 1587.203735,653.889709 1586.962402,655.536743 
	C1586.547485,655.935913 1586.203003,655.949036 1585.602051,655.926392 
z"/>
<path fill="#D2D2D2" opacity="1.000000" stroke="none" 
	d="
M1445.155762,526.229492 
	C1444.545776,527.155640 1443.579956,527.996521 1442.288086,528.845886 
	C1442.907837,527.950989 1443.853760,527.047546 1445.155762,526.229492 
z"/>
<path fill="#D2D2D2" opacity="1.000000" stroke="none" 
	d="
M1441.015625,529.145020 
	C1440.441284,530.074707 1439.511597,530.935730 1438.262085,531.849487 
	C1438.848267,530.960266 1439.754272,530.018311 1441.015625,529.145020 
z"/>
<path fill="#D2D2D2" opacity="1.000000" stroke="none" 
	d="
M1584.546143,561.333252 
	C1583.601562,560.671265 1582.814209,559.656006 1582.027100,558.316406 
	C1582.919312,558.988037 1583.811401,559.984009 1584.546143,561.333252 
z"/>
<path fill="#D2D2D2" opacity="1.000000" stroke="none" 
	d="
M1595.574341,626.005859 
	C1595.369385,625.202026 1595.467896,624.346008 1595.789795,623.246216 
	C1595.968262,623.986206 1595.922974,624.969910 1595.574341,626.005859 
z"/>
<path fill="#FAF3CE" opacity="1.000000" stroke="none" 
	d="
M1442.990479,453.545166 
	C1442.265747,453.879944 1441.486816,453.898010 1440.322388,453.851807 
	C1440.936646,453.601166 1441.936401,453.414795 1442.990479,453.545166 
z"/>
<path fill="#FAF3CE" opacity="1.000000" stroke="none" 
	d="
M1476.965332,759.154297 
	C1477.259521,759.893921 1477.186523,760.589294 1477.073608,761.634338 
	C1476.396973,761.487122 1475.760132,760.990234 1475.123413,760.493408 
	C1475.614868,760.032227 1476.106445,759.571106 1476.965332,759.154297 
z"/>
<path fill="#D2D2D2" opacity="1.000000" stroke="none" 
	d="
M1596.276611,595.814087 
	C1595.723633,595.189941 1595.416382,594.386536 1595.190308,593.262085 
	C1595.688477,593.838989 1596.105469,594.736938 1596.276611,595.814087 
z"/>
<path fill="#FAF3CE" opacity="1.000000" stroke="none" 
	d="
M1415.090576,507.426941 
	C1414.401123,507.078796 1413.686890,506.388916 1412.919434,505.387878 
	C1413.599487,505.746246 1414.332520,506.415741 1415.090576,507.426941 
z"/>
<path fill="#FAF3CE" opacity="1.000000" stroke="none" 
	d="
M1495.668213,444.002808 
	C1495.791748,444.543152 1495.624634,445.103638 1495.208740,445.828003 
	C1495.098999,445.335571 1495.238281,444.679230 1495.668213,444.002808 
z"/>
<path fill="#FAF3CE" opacity="1.000000" stroke="none" 
	d="
M1420.273926,513.811890 
	C1419.666504,513.559631 1419.289062,513.127869 1418.864136,512.401917 
	C1419.379150,512.615906 1419.941528,513.124207 1420.273926,513.811890 
z"/>
<path fill="#FAF3CE" opacity="1.000000" stroke="none" 
	d="
M1453.657593,478.202820 
	C1453.077393,477.883850 1452.614136,477.224640 1452.185181,476.251526 
	C1452.737793,476.579254 1453.256226,477.220917 1453.657593,478.202820 
z"/>
<path fill="#D2D2D2" opacity="1.000000" stroke="none" 
	d="
M1463.994873,751.298584 
	C1464.561523,751.120422 1465.119507,751.246338 1465.857666,751.596863 
	C1465.353882,751.748596 1464.670044,751.675598 1463.994873,751.298584 
z"/>
<path fill="#FAF3CE" opacity="1.000000" stroke="none" 
	d="
M1453.985107,495.531555 
	C1454.406250,495.208282 1454.884888,495.150574 1455.717773,495.177612 
	C1455.395508,495.440613 1454.718994,495.618866 1453.985107,495.531555 
z"/>
<path fill="#FAF3CE" opacity="1.000000" stroke="none" 
	d="
M1540.979248,495.624512 
	C1541.388550,495.287567 1541.866821,495.208374 1542.707275,495.185730 
	C1542.395752,495.455597 1541.721924,495.668945 1540.979248,495.624512 
z"/>
<path fill="#D2D2D2" opacity="1.000000" stroke="none" 
	d="
M1466.996582,741.115967 
	C1466.755981,741.742981 1466.172974,742.302551 1465.275146,742.855835 
	C1465.525024,742.249207 1466.089600,741.648865 1466.996582,741.115967 
z"/>
<path fill="#FAF3CE" opacity="1.000000" stroke="none" 
	d="
M1544.192871,494.872070 
	C1544.196167,494.176819 1544.580933,493.465759 1545.219727,492.585571 
	C1545.173950,493.229675 1544.874146,494.042969 1544.192871,494.872070 
z"/>
<path fill="#FAF3CE" opacity="1.000000" stroke="none" 
	d="
M1458.017334,491.986694 
	C1457.595215,491.644745 1457.380615,491.180725 1457.185547,490.328003 
	C1457.545044,490.581085 1457.885010,491.222870 1458.017334,491.986694 
z"/>
<path fill="#FAF3CE" opacity="1.000000" stroke="none" 
	d="
M1449.429077,488.756958 
	C1450.017578,489.088104 1450.458130,489.756561 1450.868164,490.736938 
	C1450.318604,490.397339 1449.799805,489.745850 1449.429077,488.756958 
z"/>
<path fill="#FAF3CE" opacity="1.000000" stroke="none" 
	d="
M1556.023193,453.411774 
	C1555.603149,453.747375 1555.122192,453.820251 1554.282959,453.808868 
	C1554.603760,453.532745 1555.283203,453.340881 1556.023193,453.411774 
z"/>
<path fill="#FAF3CE" opacity="1.000000" stroke="none" 
	d="
M1494.726562,485.178528 
	C1495.295166,485.470917 1495.634766,485.933105 1495.992676,486.694031 
	C1495.506470,486.444611 1495.001953,485.896484 1494.726562,485.178528 
z"/>
<path fill="#FAF3CE" opacity="1.000000" stroke="none" 
	d="
M1443.384644,472.769806 
	C1443.954224,473.109741 1444.390991,473.782227 1444.773682,474.764099 
	C1444.230347,474.416443 1443.741089,473.759399 1443.384644,472.769806 
z"/>
<path fill="#D2D2D2" opacity="1.000000" stroke="none" 
	d="
M1468.298340,739.289429 
	C1468.853394,738.939697 1469.332642,738.988159 1470.177124,739.049072 
	C1470.037231,739.516113 1469.531982,739.970764 1468.681641,740.457886 
	C1468.298706,740.222839 1468.260620,739.955261 1468.298340,739.289429 
z"/>
<path fill="#FFED9F" opacity="1.000000" stroke="none" 
	d="
M1462.129639,735.215820 
	C1462.330933,735.121338 1462.640259,735.286682 1463.096680,735.684570 
	C1462.908447,735.769958 1462.573120,735.622803 1462.129639,735.215820 
z"/>
<path fill="#D2D2D2" opacity="1.000000" stroke="none" 
	d="
M452.587646,689.941528 
	C452.863434,690.095642 452.918121,690.283386 452.880737,690.749634 
	C452.493286,690.931274 452.272034,690.745972 452.028076,690.274780 
	C451.931213,690.077332 452.366577,689.975037 452.587646,689.941528 
z"/>
<path fill="#FAF3CE" opacity="1.000000" stroke="none" 
	d="
M1509.051270,770.890747 
	C1508.986816,770.609863 1509.238159,770.414917 1509.786621,770.258362 
	C1509.785278,770.446777 1509.546509,770.673462 1509.051270,770.890747 
z"/>
<path fill="none" opacity="1.000000" stroke="none" 
	d="
M1276.051392,614.885437 
	C1267.303101,615.192200 1258.361206,615.192200 1248.886353,615.192200 
	C1248.886353,609.496521 1248.886353,603.726624 1248.981689,597.500732 
	C1258.003906,602.889404 1266.930908,608.734009 1276.051392,614.885437 
z"/>
<path fill="#B0B0B0" opacity="1.000000" stroke="none" 
	d="
M1532.574341,751.902466 
	C1532.211182,743.319153 1532.234131,734.681580 1532.123047,725.605591 
	C1532.633789,725.913818 1533.828491,726.653198 1533.838501,727.408142 
	C1533.940552,735.166321 1533.863281,742.927124 1533.778809,750.686646 
	C1533.774658,751.076782 1533.245239,751.461182 1532.574341,751.902466 
z"/>
<path fill="#B0B0B0" opacity="1.000000" stroke="none" 
	d="
M1503.561523,714.574646 
	C1500.152832,714.997009 1496.463745,715.148865 1492.468384,715.071533 
	C1495.868408,714.662964 1499.574951,714.483582 1503.561523,714.574646 
z"/>
<path fill="#B0B0B0" opacity="1.000000" stroke="none" 
	d="
M1532.429688,717.830200 
	C1532.181396,715.448364 1532.303223,713.032471 1532.289307,710.174866 
	C1534.436035,711.275879 1534.621338,713.588135 1532.429688,717.830200 
z"/>
<path fill="#B0B0B0" opacity="1.000000" stroke="none" 
	d="
M1525.392334,724.643555 
	C1523.951172,725.028015 1522.910767,725.028015 1521.870361,725.028015 
	C1521.758545,724.741272 1521.646851,724.454529 1521.535034,724.167786 
	C1523.103882,723.191040 1524.672729,722.214294 1526.579834,721.230591 
	C1526.543213,722.235413 1526.168091,723.247314 1525.392334,724.643555 
z"/>
<path fill="#B0B0B0" opacity="1.000000" stroke="none" 
	d="
M1526.666016,710.747925 
	C1525.149292,711.582458 1523.434937,712.175171 1521.384766,712.681641 
	C1522.855469,711.898987 1524.661987,711.202576 1526.666016,710.747925 
z"/>
<path fill="#B0B0B0" opacity="1.000000" stroke="none" 
	d="
M1512.681396,713.652527 
	C1511.777710,714.128113 1510.700439,714.370483 1509.311401,714.470398 
	C1510.169067,714.025024 1511.338501,713.722107 1512.681396,713.652527 
z"/>
<path fill="#B0B0B0" opacity="1.000000" stroke="none" 
	d="
M1486.879639,714.079956 
	C1485.888794,714.331421 1484.782104,714.322754 1483.416992,714.101440 
	C1484.360352,713.865784 1485.562256,713.842773 1486.879639,714.079956 
z"/>
<path fill="#B0B0B0" opacity="1.000000" stroke="none" 
	d="
M1529.326782,719.877686 
	C1529.747803,719.232544 1530.504272,718.633911 1531.556519,718.028809 
	C1531.122314,718.656250 1530.392334,719.290222 1529.326782,719.877686 
z"/>
<path fill="#B0B0B0" opacity="1.000000" stroke="none" 
	d="
M1518.740723,712.801758 
	C1518.374146,713.208191 1517.877075,713.400513 1517.234619,713.437622 
	C1517.596191,713.050842 1518.103149,712.819214 1518.740723,712.801758 
z"/>
<path fill="none" opacity="1.000000" stroke="none" 
	d="
M307.490295,623.811707 
	C307.197754,618.665405 307.197754,613.372375 307.197754,606.830627 
	C310.128265,611.197754 312.515137,614.754822 314.964203,618.652161 
	C312.611877,620.549988 310.197357,622.107483 307.490295,623.811707 
z"/>
<path fill="#FDEB9E" opacity="1.000000" stroke="none" 
	d="
M1561.323364,639.272583 
	C1553.271362,657.334900 1539.435791,669.245361 1521.094727,675.723450 
	C1482.939209,689.200134 1440.675537,667.196167 1430.506470,628.059265 
	C1424.476318,604.851746 1428.562866,583.092957 1445.012451,564.274292 
	C1463.153931,575.695496 1480.643188,587.141052 1498.183838,598.507507 
	C1519.207520,612.131042 1540.274902,625.687256 1561.323364,639.272583 
z"/>
<path fill="none" opacity="1.000000" stroke="none" 
	d="
M1561.584351,639.022949 
	C1540.274902,625.687256 1519.207520,612.131042 1498.183838,598.507507 
	C1480.643188,587.141052 1463.153931,575.695496 1445.330322,564.157288 
	C1454.980591,551.323181 1468.155396,543.702209 1483.773438,540.542358 
	C1506.601196,535.923889 1527.599609,540.950012 1544.634644,556.649414 
	C1568.965454,579.072205 1574.419922,610.646545 1561.584351,639.022949 
z"/>
<path fill="none" opacity="1.000000" stroke="none" 
	d="
M781.490601,731.801514 
	C770.689880,734.193787 760.279602,734.505127 750.031494,731.349915 
	C727.599976,724.443787 715.373230,707.404480 714.513367,682.207214 
	C713.692688,658.158264 728.317688,637.571899 750.591675,631.422791 
	C775.322144,624.595581 800.304871,633.889587 811.586548,654.349487 
	C824.751770,678.225403 820.685059,720.373169 781.490601,731.801514 
z"/>
<path fill="none" opacity="1.000000" stroke="none" 
	d="
M628.450684,644.575012 
	C634.995361,651.997742 638.753479,660.372864 640.775024,670.082397 
	C607.872681,670.082397 575.193726,670.082397 542.094177,670.082397 
	C545.512207,652.128235 554.731384,638.590454 572.041382,632.586304 
	C592.699280,625.420837 612.100891,627.889282 628.450684,644.575012 
z"/>
</svg>