<?xml version="1.0" standalone="no"?>
<!DOCTYPE svg PUBLIC "-//W3C//DTD SVG 20010904//EN"
 "http://www.w3.org/TR/2001/REC-SVG-20010904/DTD/svg10.dtd">
<svg version="1.0" xmlns="http://www.w3.org/2000/svg"
 width="666.000000pt" height="375.000000pt" viewBox="0 0 666.000000 375.000000"
 preserveAspectRatio="xMidYMid meet">

<g transform="translate(0.000000,375.000000) scale(0.100000,-0.100000)"
fill="#000000" stroke="none">
<path d="M5035 1866 c-72 -18 -127 -49 -183 -103 -59 -58 -73 -80 -100 -161
-37 -106 -24 -228 35 -329 27 -47 110 -126 156 -149 112 -59 271 -58 387 2 55
28 133 113 166 179 27 56 29 68 29 175 -1 100 -4 122 -24 165 -28 59 -129 162
-187 192 -78 40 -188 52 -279 29z m224 -130 c58 -28 122 -101 145 -165 47
-132 -18 -285 -151 -351 -67 -34 -180 -32 -250 3 -200 102 -209 391 -15 504
79 47 187 50 271 9z"/>
<path d="M3240 1455 l0 -375 310 0 310 0 0 95 0 95 -190 0 -190 0 0 280 0 280
-120 0 -120 0 0 -375z"/>
<path d="M3968 1823 c-2 -5 -3 -172 -3 -373 l0 -365 328 -3 327 -2 0 90 0 90
-205 0 -205 0 0 55 0 55 170 0 170 0 0 90 0 90 -170 0 -170 0 0 50 0 50 200 0
200 0 0 90 0 90 -319 0 c-176 0 -321 -3 -323 -7z"/>
<path d="M2710 1634 l0 -136 -22 16 c-105 76 -259 72 -340 -10 -41 -41 -78
-129 -78 -185 0 -54 34 -147 67 -182 85 -90 240 -103 334 -28 41 33 49 31 49
-11 0 -25 3 -28 35 -28 l35 0 -2 348 -3 347 -37 3 -38 3 0 -137z m-132 -145
c188 -46 170 -326 -23 -354 -142 -22 -248 126 -186 260 22 49 46 70 97 89 49
18 55 19 112 5z"/>
<path d="M850 1401 l0 -331 45 0 45 0 2 248 3 247 92 -140 c125 -191 120 -185
152 -185 18 0 34 8 45 23 50 68 136 199 136 207 0 4 4 10 8 12 4 2 19 21 32
43 l25 40 3 -247 2 -248 45 0 45 0 0 330 0 330 -42 -1 -43 0 -76 -117 c-42
-64 -97 -150 -123 -189 -26 -40 -50 -73 -54 -73 -4 0 -63 85 -132 188 l-125
187 -43 3 -42 3 0 -330z"/>
<path d="M1824 1554 c-48 -17 -98 -63 -125 -116 -27 -53 -27 -193 0 -246 41
-79 112 -124 207 -130 92 -6 162 23 217 90 20 25 37 48 37 52 0 3 -18 6 -41 6
-31 0 -47 -6 -69 -28 -29 -30 -88 -52 -136 -52 -66 0 -136 56 -159 129 -6 21
-6 21 206 21 l212 0 -6 64 c-10 106 -67 184 -156 214 -46 16 -137 14 -187 -4z
m158 -66 c46 -14 108 -80 108 -115 l0 -23 -170 0 c-107 0 -170 4 -170 10 0 20
38 80 61 99 51 39 107 48 171 29z"/>
<path d="M2970 1295 l0 -225 30 0 30 0 0 225 0 225 -30 0 -30 0 0 -225z"/>
</g>
</svg>
