<svg version="1.1" id="Layer_1" xmlns="http://www.w3.org/2000/svg" xmlns:xlink="http://www.w3.org/1999/xlink" x="0px" y="0px"
	 width="100%" viewBox="0 0 1920 1080" enable-background="new 0 0 1920 1080" xml:space="preserve">
<path fill="#FFED9F" opacity="1.000000" stroke="none" 
	d="
M298.938049,626.199402 
	C302.965942,623.953918 307.133331,621.924377 310.998901,619.427612 
	C334.880707,604.002686 358.698761,588.479065 382.527649,572.972351 
	C387.925873,569.459473 395.441559,567.019165 398.067871,562.026062 
	C400.833588,556.767944 399.012451,549.042542 399.016724,542.395081 
	C399.048309,493.230896 399.228180,444.065491 398.908264,394.903381 
	C398.822296,381.695923 408.658447,368.906799 425.004486,369.039581 
	C450.334900,369.245331 475.668335,369.149048 501.000183,369.073700 
	C517.202698,369.025513 528.577698,380.805817 528.181824,396.110016 
	C527.526978,421.425140 528.004272,446.769501 528.004456,472.101562 
	C528.004456,473.885010 528.004456,475.668488 528.004456,478.482330 
	C531.787720,476.304108 534.808350,474.745575 537.645020,472.903717 
	C564.401733,455.530273 591.093750,438.057007 617.870178,420.714081 
	C648.811279,400.673828 679.825500,380.746643 710.795288,360.750702 
	C738.152893,343.086975 765.485779,325.384918 792.843445,307.721222 
	C812.564270,294.988403 831.988403,281.756561 852.125305,269.718201 
	C875.196472,255.925629 899.400269,256.092865 922.079651,270.024994 
	C954.881653,290.175476 986.802429,311.759644 1019.116272,332.705750 
	C1063.828735,361.688721 1108.545410,390.665436 1153.283203,419.609375 
	C1180.321167,437.102081 1207.425659,454.491699 1234.459229,471.991272 
	C1280.999512,502.118134 1327.504883,532.298889 1374.032227,562.445679 
	C1380.994629,566.956848 1387.997070,571.406311 1395.082275,576.551392 
	C1390.164429,584.252258 1384.386597,590.869141 1380.253418,598.389954 
	C1359.233887,636.638000 1359.857544,675.090820 1380.784302,713.160156 
	C1384.755249,720.383972 1390.214844,726.789490 1394.972412,733.836304 
	C1394.959106,734.454773 1394.960938,734.809570 1394.962769,735.164307 
	C1385.648682,729.248962 1376.287231,723.406921 1367.030884,717.402649 
	C1349.568604,706.075562 1332.166870,694.655090 1314.345703,682.678223 
	C1313.951416,666.868103 1313.951416,651.653198 1313.951416,636.159546 
	C1311.265747,636.159546 1309.292603,636.164978 1307.319336,636.158752 
	C1285.220825,636.089172 1263.122192,636.017761 1240.824463,635.677734 
	C1234.823853,631.553955 1229.093140,627.586121 1223.191895,623.890625 
	C1220.066162,621.933228 1216.643677,620.449402 1213.262573,618.312866 
	C1213.169922,614.253418 1213.169922,610.632996 1213.169922,606.375244 
	C1252.715698,606.375244 1291.713379,606.375244 1330.670166,606.375244 
	C1330.670166,588.803101 1330.670166,571.880737 1330.670166,554.719971 
	C1268.397217,554.719971 1206.365356,554.719971 1143.738403,554.719971 
	C1143.738403,561.210876 1143.738403,567.491699 1143.738403,573.772522 
	C1141.854614,572.522949 1139.978882,571.261169 1138.085938,570.025513 
	C1105.361694,548.664246 1072.639893,527.299011 1039.907104,505.950958 
	C1026.246094,497.041382 1012.559265,488.171326 998.886108,479.280426 
	C986.988281,471.543915 975.100037,463.792786 963.195374,456.066833 
	C938.955139,440.335358 914.683899,424.651489 890.494507,408.842285 
	C887.856812,407.118439 886.001465,407.277222 883.376526,408.982819 
	C845.665222,433.487000 807.872620,457.866119 770.098450,482.273529 
	C741.104248,501.007782 712.103333,519.731628 683.114868,538.474609 
	C640.336792,566.133545 597.562927,593.799011 554.801636,621.483887 
	C551.494690,623.624939 548.301331,625.941345 544.611694,628.625732 
	C526.728149,631.615112 511.872070,639.056702 500.263641,652.480042 
	C497.367462,655.829041 494.858337,659.512817 492.171326,663.042603 
	C490.488434,663.673157 488.630829,664.030212 487.149719,664.976501 
	C472.090729,674.597900 457.093048,684.315247 441.643433,693.604736 
	C441.208679,656.471252 441.208679,619.738708 441.208679,582.825806 
	C434.984283,582.825806 429.483124,583.080627 424.019379,582.738403 
	C420.229767,582.501038 418.104401,583.798706 416.013702,586.999146 
	C393.186035,621.943298 370.176941,656.768860 347.207550,691.620422 
	C346.435608,692.791687 345.562775,693.896484 344.523651,695.325684 
	C329.133087,671.987305 314.035583,649.093384 298.938049,626.199402 
z"/>
<path fill="#020201" opacity="1.000000" stroke="none" 
	d="
M1143.805176,574.262146 
	C1143.738403,567.491699 1143.738403,561.210876 1143.738403,554.719971 
	C1206.365356,554.719971 1268.397217,554.719971 1330.670166,554.719971 
	C1330.670166,571.880737 1330.670166,588.803101 1330.670166,606.375244 
	C1291.713379,606.375244 1252.715698,606.375244 1213.169922,606.375244 
	C1213.169922,610.632996 1213.169922,614.253418 1213.190186,618.804199 
	C1213.210571,625.130066 1213.210571,630.525696 1213.210571,635.946899 
	C1222.885620,635.946899 1231.954590,635.946899 1241.023682,635.946899 
	C1263.122192,636.017761 1285.220825,636.089172 1307.319336,636.158752 
	C1309.292603,636.164978 1311.265747,636.159546 1313.951416,636.159546 
	C1313.951416,651.653198 1313.951416,666.868103 1314.036865,682.544617 
	C1314.414185,685.835022 1312.751587,686.057007 1310.480225,686.041504 
	C1298.485962,685.959534 1286.491089,686.003052 1274.496338,686.003113 
	C1255.837891,686.003113 1237.179565,686.003113 1218.521118,686.003113 
	C1216.892212,686.003113 1215.263428,686.003113 1213.423218,686.003113 
	C1213.423218,697.027344 1213.423218,707.628723 1213.423218,718.725403 
	C1253.052002,718.725403 1292.753906,718.725403 1332.746460,718.725403 
	C1332.746460,736.262817 1332.746460,753.308594 1332.746460,770.598022 
	C1269.921509,770.598022 1207.206177,770.598022 1143.871948,770.598022 
	C1143.871948,705.234192 1143.871948,639.992981 1143.805176,574.262146 
z"/>
<path fill="#030303" opacity="1.000000" stroke="none" 
	d="
M1094.999268,770.842834 
	C1041.216187,770.842834 987.932983,770.842834 934.370239,770.842834 
	C934.370239,698.690796 934.370239,626.942200 934.370239,554.838257 
	C957.191833,554.838257 980.088501,554.838257 1003.555847,554.838257 
	C1003.555847,608.215027 1003.555847,661.579102 1003.555847,715.402222 
	C1040.692383,715.402222 1077.264526,715.402222 1114.192505,715.402222 
	C1114.376709,717.072266 1114.633423,718.326782 1114.635620,719.581726 
	C1114.663330,735.078003 1114.556641,750.575378 1114.725708,766.069885 
	C1114.765259,769.695312 1113.858398,771.180664 1109.990479,770.920471 
	C1105.180054,770.596863 1100.331299,770.842834 1094.999268,770.842834 
z"/>
<path fill="#060505" opacity="1.000000" stroke="none" 
	d="
M1394.987549,733.572632 
	C1390.214844,726.789490 1384.755249,720.383972 1380.784302,713.160156 
	C1359.857544,675.090820 1359.233887,636.638000 1380.253418,598.389954 
	C1384.386597,590.869141 1390.164429,584.252258 1395.248413,576.888794 
	C1395.687622,576.104553 1396.062134,575.649963 1397.039795,575.080688 
	C1417.081055,555.939270 1439.838989,543.697571 1467.219604,540.857300 
	C1468.160400,540.759644 1469.050781,540.177490 1469.964722,539.821167 
	C1471.344971,539.819458 1472.725220,539.817810 1474.960693,539.872620 
	C1479.236816,539.840637 1482.657837,539.752075 1486.078857,539.663574 
	C1487.454590,539.754578 1488.830200,539.845520 1490.936890,540.098633 
	C1493.130859,540.558228 1494.581299,540.958496 1496.058594,541.137878 
	C1514.950806,543.431152 1532.158325,550.123352 1547.476562,561.360107 
	C1553.601074,565.852783 1559.192505,571.072327 1565.026611,575.960938 
	C1565.026611,575.960938 1565.002441,576.002930 1565.076172,576.314453 
	C1566.699951,578.153564 1568.249756,579.681091 1569.799683,581.208679 
	C1569.799683,581.208679 1570.008423,581.057373 1569.910400,581.472290 
	C1574.474121,588.367493 1579.135742,594.847900 1583.797241,601.328308 
	C1583.797241,601.328308 1583.798096,601.706970 1583.906128,602.216125 
	C1587.237183,611.956238 1590.522339,621.166138 1593.648804,630.429749 
	C1594.697998,633.538208 1595.341919,636.783386 1596.171143,639.966125 
	C1596.163574,640.405701 1596.156128,640.845276 1596.125488,642.061401 
	C1596.201660,651.255066 1596.301025,659.672302 1596.400513,668.089478 
	C1596.287964,668.820740 1596.175415,669.552002 1595.846436,670.932617 
	C1595.444458,673.061829 1595.258789,674.541626 1595.073242,676.021423 
	C1594.897217,676.915100 1594.721313,677.808777 1594.247681,679.274902 
	C1592.701782,684.583923 1591.453613,689.320496 1590.205322,694.057129 
	C1589.397949,696.099182 1588.590454,698.141296 1587.541504,700.781860 
	C1567.358765,743.967651 1533.950073,767.178467 1487.072632,770.847961 
	C1471.976440,772.029663 1457.315796,769.362183 1442.703857,764.781738 
	C1441.662354,764.370850 1440.824585,764.216736 1439.986694,764.062622 
	C1439.986694,764.062622 1439.964478,763.998718 1439.700684,763.779419 
	C1429.019531,757.637451 1418.602295,751.714722 1408.185059,745.792053 
	C1408.185059,745.792053 1408.039307,745.997803 1408.057373,745.574341 
	C1403.712769,741.291443 1399.350098,737.432007 1394.987549,733.572632 
M1559.540527,680.652405 
	C1560.741699,672.620300 1562.675537,664.618469 1563.009399,656.550476 
	C1564.104980,630.088989 1553.120972,608.293762 1533.651855,591.492554 
	C1514.399536,574.878174 1491.174561,569.170044 1465.915161,573.609741 
	C1449.990479,576.408752 1435.956665,583.199890 1423.888306,595.028198 
	C1400.140991,617.969727 1392.645874,646.111389 1400.928101,677.322266 
	C1414.731689,729.339844 1473.562378,753.729553 1520.686401,727.735840 
	C1539.420288,717.402222 1552.669556,702.019104 1559.540527,680.652405 
z"/>
<path fill="#FEEC9F" opacity="1.000000" stroke="none" 
	d="
M417.034210,710.873657 
	C410.695587,714.767334 404.280151,718.541992 398.032135,722.576050 
	C375.034027,737.424866 352.250092,752.612244 329.071411,767.172058 
	C313.898254,776.703308 297.197876,782.714722 279.340332,784.917847 
	C251.331879,788.373413 224.480255,784.301025 199.401138,771.065674 
	C179.953430,760.802307 163.476898,746.976379 151.062378,728.575562 
	C149.270920,725.920227 148.646500,724.078796 151.761093,722.083740 
	C183.468307,701.773193 215.145081,681.415222 247.254822,661.480957 
	C247.679276,698.781189 247.679276,735.670898 247.679276,772.705688 
	C255.819901,772.705688 263.526093,772.705688 271.588654,772.705688 
	C271.588654,770.608337 271.588654,768.804871 271.588654,767.001404 
	C271.588654,731.230164 271.578583,695.458862 271.599945,659.687622 
	C271.603027,654.541687 271.757629,649.395935 272.197357,644.167542 
	C274.933044,642.700562 277.313477,641.316101 279.935852,640.189331 
	C295.633148,663.704285 311.654602,686.613586 326.266785,710.389099 
	C332.159607,719.977295 338.545532,724.389221 349.638916,722.697693 
	C352.889709,722.202026 354.973053,721.504333 356.821045,718.704712 
	C375.683990,690.127930 394.678864,661.638123 413.639313,633.125671 
	C414.559509,631.741882 415.502441,630.373169 417.034210,628.112915 
	C417.034210,656.625183 417.034210,683.749451 417.034210,710.873657 
z"/>
<path fill="#030302" opacity="1.000000" stroke="none" 
	d="
M417.134430,711.345520 
	C417.034210,683.749451 417.034210,656.625183 417.034210,628.112915 
	C415.502441,630.373169 414.559509,631.741882 413.639313,633.125671 
	C394.678864,661.638123 375.683990,690.127930 356.821045,718.704712 
	C354.973053,721.504333 352.889709,722.202026 349.638916,722.697693 
	C338.545532,724.389221 332.159607,719.977295 326.266785,710.389099 
	C311.654602,686.613586 295.633148,663.704285 279.856262,639.876831 
	C277.208923,635.837952 274.883118,632.369202 271.842102,627.833740 
	C271.842102,634.204895 271.842102,639.227478 271.842102,644.250061 
	C271.757629,649.395935 271.603027,654.541687 271.599945,659.687622 
	C271.578583,695.458862 271.588654,731.230164 271.588654,767.001404 
	C271.588654,768.804871 271.588654,770.608337 271.588654,772.705688 
	C263.526093,772.705688 255.819901,772.705688 247.679276,772.705688 
	C247.679276,735.670898 247.679276,698.781189 247.579971,661.430664 
	C247.555450,638.527893 247.631607,616.085938 247.703537,593.643982 
	C247.714188,590.319824 247.705002,586.995728 247.705002,583.001343 
	C254.701706,583.001343 261.615021,582.909058 268.520447,583.101196 
	C269.550903,583.129944 270.853058,584.289673 271.508026,585.273376 
	C280.493134,598.768372 289.386658,612.324463 298.620361,626.032471 
	C314.035583,649.093384 329.133087,671.987305 344.523651,695.325684 
	C345.562775,693.896484 346.435608,692.791687 347.207550,691.620422 
	C370.176941,656.768860 393.186035,621.943298 416.013702,586.999146 
	C418.104401,583.798706 420.229767,582.501038 424.019379,582.738403 
	C429.483124,583.080627 434.984283,582.825806 441.208679,582.825806 
	C441.208679,619.738708 441.208679,656.471252 441.316528,693.677002 
	C441.342285,715.619446 441.257141,737.088684 441.180481,758.557861 
	C441.163910,763.195190 441.178040,767.832581 441.178040,772.736572 
	C433.209656,772.736572 425.480469,772.736572 417.234650,772.736572 
	C417.234650,752.343567 417.234650,732.080444 417.134430,711.345520 
z"/>
<path fill="#030303" opacity="1.000000" stroke="none" 
	d="
M804.923950,726.000000 
	C804.924133,741.802246 804.924133,757.104492 804.924133,773.002075 
	C799.074280,773.002075 793.467834,773.157349 787.885681,772.858826 
	C786.881531,772.805115 785.319702,770.981873 785.139465,769.803711 
	C784.299438,764.311523 783.853760,758.759033 783.289734,753.442078 
	C775.895935,758.617004 769.177490,763.917358 761.898315,768.282532 
	C748.939392,776.053589 734.464783,776.513977 719.828003,776.016296 
	C705.973450,775.545288 693.116577,770.889526 682.967896,762.430969 
	C669.239075,750.988342 659.300537,736.140625 657.430420,717.468811 
	C656.579407,708.971985 655.112061,700.210388 656.296997,691.907410 
	C658.452881,676.799988 663.883118,662.930237 674.547668,651.043457 
	C688.824219,635.130676 706.794617,628.637329 727.177612,628.367798 
	C747.153503,628.103638 765.130554,634.365173 779.455017,649.098389 
	C779.890869,649.546692 780.456604,649.868835 781.623169,650.748596 
	C781.623169,624.275330 781.623169,598.450195 781.623169,572.310913 
	C789.548096,572.310913 796.945251,572.310913 804.923828,572.310913 
	C804.923828,623.338623 804.923828,674.419312 804.923950,726.000000 
M769.987183,666.537170 
	C750.078247,643.658875 707.716248,644.080933 688.791931,670.232666 
	C674.710754,689.691467 675.854553,720.056458 691.348267,737.518311 
	C707.289246,755.484192 736.437927,759.852173 758.157654,747.529907 
	C785.237305,732.166748 791.319702,692.446411 769.987183,666.537170 
z"/>
<path fill="#040404" opacity="1.000000" stroke="none" 
	d="
M492.062012,663.399048 
	C494.858337,659.512817 497.367462,655.829041 500.263641,652.480042 
	C511.872070,639.056702 526.728149,631.615112 544.557861,628.963135 
	C561.847961,627.367249 578.069763,629.286804 593.055420,638.018066 
	C611.638306,648.845093 621.538879,665.675415 625.876648,686.055908 
	C627.612183,694.209839 627.926758,702.666199 628.953308,711.549377 
	C587.334106,711.549377 546.909302,711.549377 506.432404,711.549377 
	C509.574707,736.726440 525.072327,751.898560 548.895691,754.717957 
	C568.052307,756.985046 584.831116,750.955566 596.906860,734.761169 
	C597.873535,733.464783 599.793152,732.171204 601.314819,732.116150 
	C608.800110,731.845276 616.300537,731.993103 624.337891,731.993103 
	C621.844299,739.945068 617.372498,746.437927 612.061401,752.114380 
	C597.782715,767.375244 580.398743,776.253784 559.039734,775.993042 
	C550.410950,775.887756 541.793701,776.465088 533.278687,773.840942 
	C514.197388,767.960571 499.896698,756.837158 490.940094,738.633484 
	C484.512512,725.569763 482.911835,711.940430 483.122559,697.713013 
	C483.301971,685.604553 486.931824,674.533081 492.062012,663.399048 
M538.499634,691.483948 
	C560.614014,691.483948 582.728455,691.483948 604.909912,691.483948 
	C601.925232,669.055237 583.093262,646.526672 548.850342,650.165100 
	C526.708191,652.517761 504.706390,674.445435 507.552032,691.274292 
	C507.869537,691.336182 508.186951,691.451660 508.504547,691.452209 
	C518.169556,691.469788 527.834534,691.476013 538.499634,691.483948 
z"/>
<path fill="#FCEA9E" opacity="1.000000" stroke="none" 
	d="
M1442.907593,765.038574 
	C1457.315796,769.362183 1471.976440,772.029663 1487.072632,770.847961 
	C1533.950073,767.178467 1567.358765,743.967651 1587.577271,701.165100 
	C1600.289062,708.822998 1612.723633,716.696167 1625.915771,725.048889 
	C1621.538330,730.675354 1617.869751,735.942200 1613.647583,740.719910 
	C1597.559937,758.924377 1577.837402,771.919922 1554.814575,779.420227 
	C1523.395508,789.655762 1492.158447,788.616394 1461.562988,775.749207 
	C1455.482056,773.191833 1449.682129,769.965820 1443.383545,766.689697 
	C1442.978760,765.900391 1442.943237,765.469482 1442.907593,765.038574 
z"/>
<path fill="#070707" opacity="1.000000" stroke="none" 
	d="
M856.355225,684.999756 
	C856.355225,670.878723 856.355225,657.257690 856.355225,643.429321 
	C862.384949,643.429321 867.983398,643.429321 873.995728,643.429321 
	C873.995728,686.539001 873.995728,729.576660 873.995728,772.911255 
	C868.410217,772.911255 862.660217,772.911255 856.355225,772.911255 
	C856.355225,743.734009 856.355225,714.616943 856.355225,684.999756 
z"/>
<path fill="#FFCA1F" opacity="1.000000" stroke="none" 
	d="
M874.189392,580.196472 
	C871.497314,586.014893 868.961426,591.485840 865.909302,598.070435 
	C873.282166,597.735779 879.395508,597.458252 886.715332,597.125977 
	C876.599548,609.513123 867.249573,620.962585 857.899536,632.411987 
	C857.640381,632.303467 857.381165,632.194946 857.121948,632.086426 
	C859.265869,624.915710 861.409729,617.745056 863.746887,609.927856 
	C858.209595,609.927856 853.474121,609.927856 847.759521,609.927856 
	C849.994385,597.704895 852.113892,586.113159 854.277344,574.280640 
	C861.788452,574.280640 869.015686,574.280640 876.512817,574.280640 
	C875.760620,576.213196 875.053101,578.031067 874.189392,580.196472 
z"/>
<path fill="#FDCB4D" opacity="1.000000" stroke="none" 
	d="
M1426.004639,495.999268 
	C1426.646729,497.762421 1427.288696,499.525635 1428.039307,501.972717 
	C1428.979614,504.261078 1429.811401,505.865601 1430.643066,507.470093 
	C1431.171143,509.556213 1431.664917,511.651764 1432.236084,513.726013 
	C1432.938354,516.276550 1434.328003,519.222351 1430.926270,520.629395 
	C1427.572388,522.016785 1426.285767,519.194214 1425.008057,516.061035 
	C1424.395264,514.773071 1423.903564,514.134277 1423.411865,513.495483 
	C1422.967529,511.902985 1422.523315,510.310547 1421.979980,508.027405 
	C1421.032471,505.739685 1420.183960,504.142670 1419.335449,502.545715 
	C1416.283569,494.064636 1413.157104,485.608856 1410.263428,477.074158 
	C1409.845825,475.842865 1410.546753,474.232391 1411.183594,472.423401 
	C1412.101562,471.737030 1412.566162,471.424652 1413.030762,471.112244 
	C1414.619507,472.196411 1416.208252,473.280609 1417.917480,474.997314 
	C1418.549194,476.272003 1419.060669,476.914185 1419.572144,477.556396 
	C1421.014526,481.790497 1422.456909,486.024628 1423.997070,490.957703 
	C1424.731445,493.104187 1425.368042,494.551727 1426.004639,495.999268 
z"/>
<path fill="#FDCB4D" opacity="1.000000" stroke="none" 
	d="
M1476.613525,463.935425 
	C1477.157593,461.461456 1477.669556,458.246674 1481.011719,459.427399 
	C1482.713135,460.028442 1484.642822,462.919983 1484.684204,464.815033 
	C1484.989014,478.802307 1484.964478,492.801788 1484.685059,506.790314 
	C1484.650513,508.517303 1482.842285,511.114258 1481.259033,511.703461 
	C1478.546875,512.712708 1477.091553,510.545441 1476.857666,506.983093 
	C1476.799438,492.076324 1476.706543,478.005890 1476.613525,463.935425 
z"/>
<path fill="#FDCB4D" opacity="1.000000" stroke="none" 
	d="
M1369.822388,520.281738 
	C1371.634277,522.440430 1373.446289,524.599121 1375.607300,527.243408 
	C1376.561035,528.269470 1377.165771,528.809937 1377.770508,529.350403 
	C1378.933960,530.823853 1380.097412,532.297302 1381.604004,534.271057 
	C1382.891968,535.625671 1383.836792,536.479980 1384.781738,537.334290 
	C1386.106323,540.261536 1390.360962,542.025574 1387.841064,546.604614 
	C1386.892944,547.262695 1386.438110,547.599426 1385.983276,547.936157 
	C1379.184692,547.349670 1377.192993,540.881348 1373.141846,537.065796 
	C1368.488159,532.682678 1364.822266,527.250732 1360.375854,521.763062 
	C1359.079834,520.401367 1358.135254,519.551025 1357.190552,518.700745 
	C1356.327026,517.565918 1355.463379,516.431030 1354.275635,514.770813 
	C1353.170288,512.467896 1352.389282,510.690338 1351.608276,508.912781 
	C1352.209473,508.259338 1352.810669,507.605835 1354.044922,506.845520 
	C1355.485229,506.674011 1356.292358,506.609375 1357.099609,506.544769 
	C1358.164551,507.612762 1359.229614,508.680725 1360.637085,510.246399 
	C1361.928223,511.587677 1362.876953,512.431213 1363.825684,513.274719 
	C1365.014526,514.750549 1366.203369,516.226318 1367.709473,518.182129 
	C1368.625366,519.201965 1369.223877,519.741821 1369.822388,520.281738 
z"/>
<path fill="#FDCB4D" opacity="1.000000" stroke="none" 
	d="
M1549.166992,483.048035 
	C1547.468994,487.454895 1545.770874,491.861725 1543.771973,496.845032 
	C1543.037109,498.963837 1542.602905,500.506195 1542.168701,502.048553 
	C1541.332886,504.290955 1540.496948,506.533325 1539.355957,509.298859 
	C1538.743774,510.560974 1538.436646,511.299927 1538.129517,512.038879 
	C1537.641235,513.623169 1537.153076,515.207520 1536.365234,517.306152 
	C1535.701904,518.540222 1535.338135,519.260071 1534.974365,519.979919 
	C1534.974365,519.979919 1535.000000,520.000000 1534.691895,520.019897 
	C1533.928955,520.386658 1533.474243,520.733521 1533.019409,521.080444 
	C1532.566284,521.065430 1532.113037,521.050415 1531.165405,520.801514 
	C1530.115845,520.375061 1529.560669,520.182556 1529.005615,519.989990 
	C1529.127563,517.409363 1529.249390,514.828735 1529.678955,511.691528 
	C1530.598022,509.406250 1531.209229,507.677582 1531.820312,505.948883 
	C1533.335815,501.719788 1534.851318,497.490723 1536.680298,492.702026 
	C1537.620361,490.415558 1538.246948,488.688721 1538.873535,486.961884 
	C1541.051270,482.052429 1543.228882,477.143005 1546.075317,472.058899 
	C1547.831787,471.917511 1548.919556,471.950836 1550.007324,471.984161 
	C1550.342529,473.726349 1550.677856,475.468506 1550.739258,477.820038 
	C1550.032471,479.968933 1549.599731,481.508484 1549.166992,483.048035 
z"/>
<path fill="#FDCB4D" opacity="1.000000" stroke="none" 
	d="
M1608.071899,506.708496 
	C1608.071899,506.708466 1608.434448,506.945618 1608.682861,507.309082 
	C1609.281616,508.116730 1609.631836,508.560944 1609.982178,509.005188 
	C1609.979492,509.450439 1609.976807,509.895660 1609.753296,510.838440 
	C1609.361206,511.893677 1609.189941,512.451416 1609.018799,513.009155 
	C1606.393555,516.048950 1603.768433,519.088867 1600.683960,522.533447 
	C1599.770996,523.599182 1599.317261,524.260193 1598.863525,524.921204 
	C1597.361450,526.462830 1595.859497,528.004517 1593.909546,529.925171 
	C1592.916992,531.169006 1592.372437,532.033813 1591.827881,532.898682 
	C1587.674072,537.417603 1583.520142,541.936462 1578.864868,546.740051 
	C1576.905273,547.027222 1575.447021,547.029785 1573.988892,547.032349 
	C1573.614502,545.916687 1573.240234,544.801086 1573.118286,543.182617 
	C1573.584717,542.122070 1573.798584,541.564331 1574.012451,541.006531 
	C1582.884888,530.824219 1591.757446,520.641968 1601.109375,510.045654 
	C1603.749878,508.657227 1605.910889,507.682861 1608.071899,506.708496 
z"/>

<path fill="#FEF5DB" opacity="1.000000" stroke="none" 
	d="
M1476.263428,464.083496 
	C1476.706543,478.005890 1476.799438,492.076324 1476.758057,506.605164 
	C1476.092529,506.154083 1475.105347,505.247864 1475.098877,504.334625 
	C1475.007202,491.536377 1475.038452,478.737030 1475.095215,465.938232 
	C1475.097656,465.368134 1475.628662,464.800385 1476.263428,464.083496 
z"/>

<path fill="#FDF3D5" opacity="1.000000" stroke="none" 
	d="
M1430.731934,507.086487 
	C1429.811401,505.865601 1428.979614,504.261078 1428.172363,502.300781 
	C1429.071411,503.530945 1429.946045,505.116913 1430.731934,507.086487 
z"/>
<path fill="#FDF3D5" opacity="1.000000" stroke="none" 
	d="
M1549.486816,482.977478 
	C1549.599731,481.508484 1550.032471,479.968933 1550.729736,478.213928 
	C1550.598267,479.634583 1550.202393,481.270752 1549.486816,482.977478 
z"/>
<path fill="#FDF3D5" opacity="1.000000" stroke="none" 
	d="
M1538.526367,487.038910 
	C1538.246948,488.688721 1537.620361,490.415558 1536.704834,492.326477 
	C1537.003540,490.712341 1537.591431,488.914124 1538.526367,487.038910 
z"/>
<path fill="#FDF3D5" opacity="1.000000" stroke="none" 
	d="
M1426.254028,495.800964 
	C1425.368042,494.551727 1424.731445,493.104187 1424.126953,491.305267 
	C1424.940552,492.503479 1425.722046,494.053101 1426.254028,495.800964 
z"/>
<path fill="#FDF3D5" opacity="1.000000" stroke="none" 
	d="
M1574.052979,547.390747 
	C1575.447021,547.029785 1576.905273,547.027222 1578.684326,547.018066 
	C1577.799316,550.062927 1576.038818,549.440186 1574.052979,547.390747 
z"/>
<path fill="#FDF3D5" opacity="1.000000" stroke="none" 
	d="
M1542.487061,501.975525 
	C1542.602905,500.506195 1543.037109,498.963837 1543.742432,497.212097 
	C1543.610840,498.636017 1543.208130,500.269257 1542.487061,501.975525 
z"/>
<path fill="#FDF3D5" opacity="1.000000" stroke="none" 
	d="
M1419.254639,502.929688 
	C1420.183960,504.142670 1421.032471,505.739685 1421.852539,507.693268 
	C1420.940674,506.471161 1420.057251,504.892456 1419.254639,502.929688 
z"/>
<path fill="#FDF3D5" opacity="1.000000" stroke="none" 
	d="
M1531.478638,506.031799 
	C1531.209229,507.677582 1530.598022,509.406250 1529.698853,511.321045 
	C1529.986206,509.709686 1530.561523,507.912201 1531.478638,506.031799 
z"/>
<path fill="#FDF3D5" opacity="1.000000" stroke="none" 
	d="
M1549.956421,471.642578 
	C1548.919556,471.950836 1547.831787,471.917511 1546.339844,471.819641 
	C1547.258911,471.603729 1548.582153,471.452362 1549.956421,471.642578 
z"/>
<path fill="#CCCCCC" opacity="1.000000" stroke="none" 
	d="
M1442.703857,764.781738 
	C1442.943237,765.469482 1442.978760,765.900391 1443.024902,766.655151 
	C1442.035645,766.219482 1441.035889,765.459961 1440.011475,764.381592 
	C1440.824585,764.216736 1441.662354,764.370850 1442.703857,764.781738 
z"/>
<path fill="#FDF3D5" opacity="1.000000" stroke="none" 
	d="
M1384.822876,536.958252 
	C1383.836792,536.479980 1382.891968,535.625671 1381.862305,534.453857 
	C1382.806396,534.951538 1383.835205,535.766846 1384.822876,536.958252 
z"/>
<path fill="#FDF3D5" opacity="1.000000" stroke="none" 
	d="
M1363.855713,512.904907 
	C1362.876953,512.431213 1361.928223,511.587677 1360.905640,510.422424 
	C1361.849731,510.912170 1362.867798,511.723663 1363.855713,512.904907 
z"/>
<path fill="#FDF3D5" opacity="1.000000" stroke="none" 
	d="
M1357.157349,519.072754 
	C1358.135254,519.551025 1359.079834,520.401367 1360.102905,521.571411 
	C1359.162231,521.075684 1358.143188,520.260193 1357.157349,519.072754 
z"/>
<path fill="#FDF3D5" opacity="1.000000" stroke="none" 
	d="
M1357.005737,506.268738 
	C1356.292358,506.609375 1355.485229,506.674011 1354.286377,506.615875 
	C1354.900513,506.326294 1355.906250,506.159515 1357.005737,506.268738 
z"/>
<path fill="#FDF3D5" opacity="1.000000" stroke="none" 
	d="
M1592.181763,532.895386 
	C1592.372437,532.033813 1592.916992,531.169006 1593.765137,530.215149 
	C1593.557739,531.048096 1593.046753,531.970093 1592.181763,532.895386 
z"/>
<path fill="#FDF3D5" opacity="1.000000" stroke="none" 
	d="
M1535.334839,519.932861 
	C1535.338135,519.260071 1535.701904,518.540222 1536.333496,517.659851 
	C1536.299194,518.294800 1535.997192,519.090271 1535.334839,519.932861 
z"/>
<path fill="#FEF5DB" opacity="1.000000" stroke="none" 
	d="
M1412.870117,470.858765 
	C1412.566162,471.424652 1412.101562,471.737030 1411.348389,472.080139 
	C1411.609619,471.609009 1412.159668,471.107147 1412.870117,470.858765 
z"/>
<path fill="#FEF5DB" opacity="1.000000" stroke="none" 
	d="
M1419.677490,477.199707 
	C1419.060669,476.914185 1418.549194,476.272003 1418.056152,475.305237 
	C1418.643799,475.601440 1419.213379,476.222198 1419.677490,477.199707 
z"/>
<path fill="#FDF3D5" opacity="1.000000" stroke="none" 
	d="
M1610.220581,508.832336 
	C1609.631836,508.560944 1609.281616,508.116730 1608.886597,507.382721 
	C1609.380981,507.615112 1609.919922,508.137299 1610.220581,508.832336 
z"/>
<path fill="#FDF3D5" opacity="1.000000" stroke="none" 
	d="
M1538.471436,511.961029 
	C1538.436646,511.299927 1538.743774,510.560974 1539.321411,509.658142 
	C1539.332397,510.290588 1539.072998,511.086884 1538.471436,511.961029 
z"/>
<path fill="#FDF3D5" opacity="1.000000" stroke="none" 
	d="
M1609.310303,512.985168 
	C1609.189941,512.451416 1609.361206,511.893677 1609.781982,511.171234 
	C1609.888184,511.658051 1609.744995,512.309631 1609.310303,512.985168 
z"/>
<path fill="#FDF3D5" opacity="1.000000" stroke="none" 
	d="
M1423.308838,513.841797 
	C1423.903564,514.134277 1424.395264,514.773071 1424.863159,515.729309 
	C1424.294800,515.427185 1423.750244,514.807617 1423.308838,513.841797 
z"/>
<path fill="#FDF3D5" opacity="1.000000" stroke="none" 
	d="
M1369.847900,519.929260 
	C1369.223877,519.741821 1368.625366,519.201965 1367.982666,518.347961 
	C1368.583374,518.548157 1369.228271,519.062500 1369.847900,519.929260 
z"/>
<path fill="#FDF3D5" opacity="1.000000" stroke="none" 
	d="
M1386.150391,548.180786 
	C1386.438110,547.599426 1386.892944,547.262695 1387.639282,546.890015 
	C1387.392944,547.377869 1386.855103,547.901611 1386.150391,548.180786 
z"/>
<path fill="#FDF3D5" opacity="1.000000" stroke="none" 
	d="
M1529.020752,520.282349 
	C1529.560669,520.182556 1530.115845,520.375061 1530.825928,520.824097 
	C1530.332764,520.911926 1529.684326,520.743286 1529.020752,520.282349 
z"/>
<path fill="#FDF3D5" opacity="1.000000" stroke="none" 
	d="
M1533.194336,521.302246 
	C1533.474243,520.733521 1533.928955,520.386658 1534.681396,520.006836 
	C1534.442627,520.490723 1533.906006,521.007385 1533.194336,521.302246 
z"/>
<path fill="#FDF3D5" opacity="1.000000" stroke="none" 
	d="
M1599.219971,524.907410 
	C1599.317261,524.260193 1599.770996,523.599182 1600.516724,522.820312 
	C1600.397949,523.432861 1599.987183,524.163269 1599.219971,524.907410 
z"/>
<path fill="#FDF3D5" opacity="1.000000" stroke="none" 
	d="
M1377.810913,528.984070 
	C1377.165771,528.809937 1376.561035,528.269470 1375.878540,527.424133 
	C1376.484253,527.618774 1377.167847,528.118225 1377.810913,528.984070 
z"/>
<path fill="#FDF3D5" opacity="1.000000" stroke="none" 
	d="
M1573.724121,541.019531 
	C1573.798584,541.564331 1573.584717,542.122070 1573.095947,542.816772 
	C1573.025879,542.313354 1573.230713,541.672974 1573.724121,541.019531 
z"/>

<path fill="#FDEB9E" opacity="1.000000" stroke="none" 
	d="
M1558.949219,681.179810 
	C1552.669556,702.019104 1539.420288,717.402222 1520.686401,727.735840 
	C1473.562378,753.729553 1414.731689,729.339844 1400.928101,677.322266 
	C1392.645874,646.111389 1400.140991,617.969727 1424.564331,595.057007 
	C1465.536621,621.248535 1505.823486,647.426025 1546.143555,673.551941 
	C1550.310303,676.251770 1554.675903,678.644531 1558.949219,681.179810 
z"/>

</svg>