<?xml version="1.0" standalone="no"?>
<!DOCTYPE svg PUBLIC "-//W3C//DTD SVG 20010904//EN"
 "http://www.w3.org/TR/2001/REC-SVG-20010904/DTD/svg10.dtd">
<svg version="1.0" xmlns="http://www.w3.org/2000/svg"
 width="666.000000pt" height="375.000000pt" viewBox="0 0 666.000000 375.000000"
 preserveAspectRatio="xMidYMid meet">

<g transform="translate(0.000000,375.000000) scale(0.100000,-0.100000)"
fill="#000000" stroke="none">
<path d="M5125 1971 c-84 -15 -182 -86 -228 -164 -14 -23 -31 -70 -37 -105
-30 -148 43 -296 182 -369 48 -25 63 -28 153 -28 114 1 155 16 231 87 66 62
96 128 102 226 4 71 1 92 -19 144 -30 75 -101 151 -172 183 -57 26 -150 37
-212 26z m146 -103 c53 -15 113 -69 139 -123 18 -38 21 -59 18 -120 -3 -62 -8
-80 -33 -117 -17 -23 -50 -56 -74 -73 -40 -28 -49 -30 -131 -30 -82 0 -91 2
-131 30 -60 42 -101 112 -107 180 -15 178 146 305 319 253z"/>
<path d="M3360 1525 l0 -375 310 0 310 0 0 95 0 95 -190 0 -190 0 0 280 0 280
-120 0 -120 0 0 -375z"/>
<path d="M4088 1890 c-1 -5 -2 -174 0 -375 l2 -365 325 0 325 0 0 90 0 90
-205 0 -205 0 0 60 0 60 175 0 176 0 -3 83 -3 82 -172 3 -173 2 0 50 0 50 200
0 200 0 0 90 0 90 -319 0 c-203 0 -321 -4 -323 -10z"/>
<path d="M2830 1710 c0 -73 -4 -130 -9 -130 -5 0 -16 6 -24 14 -43 44 -141 62
-215 41 -68 -20 -113 -52 -150 -108 -25 -37 -27 -49 -27 -136 0 -126 25 -174
120 -231 77 -46 233 -28 284 34 18 22 31 20 31 -3 0 -37 12 -51 41 -51 l29 0
0 350 0 350 -40 0 -40 0 0 -130z m-72 -172 c48 -32 72 -81 72 -147 0 -108 -58
-172 -161 -179 -73 -5 -110 9 -153 60 -76 88 -40 245 65 285 52 19 131 11 177
-19z"/>
<path d="M980 1470 l0 -330 40 0 40 0 0 252 c0 254 2 267 34 209 6 -12 49 -80
96 -151 83 -126 86 -129 121 -130 30 0 41 6 63 34 14 19 26 37 26 40 0 3 29
47 65 98 36 51 70 103 75 115 26 61 30 30 30 -217 l0 -251 38 3 37 3 3 328 2
327 -39 0 c-30 0 -44 -6 -56 -22 -41 -58 -223 -339 -230 -355 -7 -17 -8 -17
-18 0 -7 11 -48 73 -92 138 -44 66 -85 127 -90 137 -51 86 -67 102 -106 102
l-39 0 0 -330z"/>
<path d="M1995 1641 c-96 -25 -155 -75 -182 -155 -44 -130 4 -269 112 -328 57
-32 183 -32 241 0 43 24 97 76 107 105 5 14 0 17 -34 17 -32 0 -49 -7 -75 -30
-39 -34 -105 -54 -147 -46 -67 13 -137 81 -137 131 0 19 7 20 193 20 105 0
200 2 211 4 39 8 -3 157 -60 215 -53 53 -162 84 -229 67z m116 -82 c45 -14 72
-40 94 -92 l15 -37 -171 0 -171 0 7 28 c3 15 18 40 33 56 50 53 115 68 193 45z"/>
<path d="M3090 1365 l0 -225 30 0 30 0 0 225 0 225 -30 0 -30 0 0 -225z"/>
<path d="M5075 1281 c-3 -2 -5 -20 -5 -39 0 -25 5 -35 19 -39 19 -5 19 -5 -1
-25 -12 -12 -16 -24 -11 -29 5 -5 61 -8 124 -7 l114 3 3 43 c2 31 -1 44 -13
48 -15 6 -15 8 0 24 23 25 9 30 -52 17 -36 -8 -71 -8 -113 -1 -33 6 -63 8 -65
5z"/>
</g>
</svg>
